<?xml version="1.0" encoding="UTF-8" standalone="no"?>
<svg
   xmlns:dc="http://purl.org/dc/elements/1.1/"
   xmlns:cc="http://creativecommons.org/ns#"
   xmlns:rdf="http://www.w3.org/1999/02/22-rdf-syntax-ns#"
   xmlns:svg="http://www.w3.org/2000/svg"
   xmlns="http://www.w3.org/2000/svg"
   viewBox="0 0 955.59998 254"
   height="254"
   width="955.59998"
   xml:space="preserve"
   id="svg2"
   version="1.1"><metadata
     id="metadata8"><rdf:RDF><cc:Work
         rdf:about=""><dc:format>image/svg+xml</dc:format><dc:type
           rdf:resource="http://purl.org/dc/dcmitype/StillImage" /></cc:Work></rdf:RDF></metadata><defs
     id="defs6" /><g
     transform="matrix(1.3333333,0,0,-1.3333333,0,254)"
     id="g10"><g
       transform="scale(0.1)"
       id="g12"><path
         id="path14"
         style="fill:#231f20;fill-opacity:1;fill-rule:nonzero;stroke:none"
         d="m 1954.51,1745.66 v 0 h 564.3 v -147.75 h -401.28 v -158.23 h 353.21 v -148.79 h -353.21 v -287.12 h -163.02 v 741.89" /><path
         id="path16"
         style="fill:#231f20;fill-opacity:1;fill-rule:nonzero;stroke:none"
         d="m 2627.49,1745.64 v 0 h 163.02 v -593.08 h 368.88 v -148.8 h -531.9 v 741.88" /><path
         id="path18"
         style="fill:#231f20;fill-opacity:1;fill-rule:nonzero;stroke:none"
         d="m 3260.75,1745.64 v 0 h 558.03 v -144.6 h -396.05 v -150.89 h 349.02 V 1304.5 h -349.02 v -155.09 h 401.28 v -145.65 h -563.26 v 741.88" /><path
         id="path20"
         style="fill:#231f20;fill-opacity:1;fill-rule:nonzero;stroke:none"
         d="m 3948.36,1745.64 v 0 h 175.56 l 194.37,-313.3 194.37,313.3 h 175.56 v -741.88 h -161.97 v 485.16 l -207.96,-317.5 h -4.18 l -205.86,313.31 v -480.97 h -159.89 v 741.88" /><path
         id="path22"
         style="fill:#231f20;fill-opacity:1;fill-rule:nonzero;stroke:none"
         d="m 4852.28,1745.64 v 0 h 163.02 v -741.88 h -163.02 v 741.88" /><path
         id="path24"
         style="fill:#231f20;fill-opacity:1;fill-rule:nonzero;stroke:none"
         d="m 5179.37,1745.64 v 0 h 149.42 l 346.95,-456.86 v 456.86 h 160.93 v -741.87 h -138.99 l -358.43,471.53 v -471.53 h -159.88 v 741.87" /><path
         id="path26"
         style="fill:#231f20;fill-opacity:1;fill-rule:nonzero;stroke:none"
         d="m 5946.39,1372.61 v 0 2.09 c 0,211.68 164.06,384.57 387.7,384.57 133.76,0 214.22,-36.68 291.55,-102.69 l -103.46,-123.65 c -56.42,48.2 -107.63,75.45 -193.32,75.45 -118.08,0 -212.14,-104.79 -212.14,-231.58 v -2.1 c 0,-135.17 93.01,-234.72 223.64,-234.72 59.56,0 112.86,14.67 153.61,44.02 v 105.83 h -164.06 v 141.46 h 321.85 v -322.74 c -76.28,-64.96 -180.78,-117.359 -316.63,-117.359 -229.9,0 -388.74,162.419 -388.74,381.419" /><path
         id="path28"
         style="fill:#231f20;fill-opacity:1;fill-rule:nonzero;stroke:none"
         d="m 1939.6,505.59 19.59,23.191 c 29.2,-26.39 57.19,-39.59 95.99,-39.59 37.59,0 62.38,20 62.38,47.598 v 0.789 c 0,26.004 -13.99,40.801 -72.78,53.192 -64.39,14.011 -93.99,34.8 -93.99,80.789 v 0.8 c 0,44 38.8,76.391 91.99,76.391 40.79,0 69.98,-11.602 98.38,-34.391 l -18.4,-24.398 c -25.99,21.187 -51.99,30.391 -80.78,30.391 -36.39,0 -59.59,-20 -59.59,-45.192 v -0.801 c 0,-26.39 14.4,-41.199 75.98,-54.39 62.4,-13.598 91.19,-36.387 91.19,-79.188 v -0.801 c 0,-47.992 -39.99,-79.191 -95.58,-79.191 -44.39,0 -80.79,14.813 -114.38,44.801" /><path
         id="path30"
         style="fill:#231f20;fill-opacity:1;fill-rule:nonzero;stroke:none"
         d="m 2195.99,567.18 v 0.8 c 0,58.391 45.59,107.981 105.98,107.981 39.2,0 63.59,-16.402 82.79,-36.789 l -20.4,-21.602 c -16.4,17.2 -34.79,31.192 -62.79,31.192 -41.99,0 -73.98,-35.59 -73.98,-79.981 v -0.801 c 0,-44.8 32.79,-80.39 75.98,-80.39 26.4,0 46.8,13.199 63.19,30.801 l 19.6,-18.403 C 2365.56,476.801 2340.77,460 2301.97,460 c -60.39,0 -105.98,49.191 -105.98,107.18" /><path
         id="path32"
         style="fill:#231f20;fill-opacity:1;fill-rule:nonzero;stroke:none"
         d="m 2437.19,756.75 h 30.79 V 635.57 c 13.6,22.391 35.19,40.391 70.79,40.391 49.99,0 79.19,-33.602 79.19,-82.789 V 464.801 h -30.8 v 120.781 c 0,38.387 -20.79,62.387 -57.19,62.387 -35.59,0 -61.99,-26 -61.99,-64.797 V 464.801 h -30.79 V 756.75" /><path
         id="path34"
         style="fill:#231f20;fill-opacity:1;fill-rule:nonzero;stroke:none"
         d="m 2854.76,567.18 v 0.8 c 0,44.391 -33.2,80.782 -76.79,80.782 -44.8,0 -75.59,-36.391 -75.59,-79.981 v -0.801 c 0,-44.398 32.8,-80.39 76.39,-80.39 44.79,0 75.99,35.992 75.99,79.59 z m -183.97,0 v 0.8 c 0,58.391 45.59,107.981 107.98,107.981 61.99,0 107.58,-48.789 107.58,-107.18 v -0.801 c 0,-58.39 -45.99,-107.98 -108.38,-107.98 -61.99,0 -107.18,48.789 -107.18,107.18" /><path
         id="path36"
         style="fill:#231f20;fill-opacity:1;fill-rule:nonzero;stroke:none"
         d="m 3113.15,567.18 v 0.8 c 0,44.391 -33.19,80.782 -76.79,80.782 -44.79,0 -75.58,-36.391 -75.58,-79.981 v -0.801 c 0,-44.398 32.79,-80.39 76.38,-80.39 44.79,0 75.99,35.992 75.99,79.59 z m -183.97,0 v 0.8 c 0,58.391 45.59,107.981 107.98,107.981 61.99,0 107.58,-48.789 107.58,-107.18 v -0.801 c 0,-58.39 -45.99,-107.98 -108.38,-107.98 -61.99,0 -107.18,48.789 -107.18,107.18" /><path
         id="path38"
         style="fill:#231f20;fill-opacity:1;fill-rule:nonzero;stroke:none"
         d="m 3203.17,756.75 h 30.8 V 464.801 h -30.8 V 756.75" /><path
         id="path40"
         style="fill:#231f20;fill-opacity:1;fill-rule:nonzero;stroke:none"
         d="m 3596.73,567.18 v 0.8 c 0,44.391 -33.19,80.782 -76.78,80.782 -44.8,0 -75.59,-36.391 -75.59,-79.981 v -0.801 c 0,-44.398 32.79,-80.39 76.39,-80.39 44.79,0 75.98,35.992 75.98,79.59 z m -183.97,0 v 0.8 c 0,58.391 45.6,107.981 107.99,107.981 61.99,0 107.58,-48.789 107.58,-107.18 v -0.801 c 0,-58.39 -45.99,-107.98 -108.38,-107.98 -62,0 -107.19,48.789 -107.19,107.18" /><path
         id="path42"
         style="fill:#231f20;fill-opacity:1;fill-rule:nonzero;stroke:none"
         d="m 3695.55,644.371 h -28.4 v 26.789 h 28.4 v 18 c 0,23.59 6.4,41.59 17.99,53.18 10.4,10.41 25.61,16.012 44.4,16.012 14.4,0 23.99,-1.602 33.99,-5.204 v -26.796 c -11.19,3.199 -19.59,5.199 -29.99,5.199 -24,0 -36,-14.403 -36,-43.992 v -16.797 h 65.59 v -26.391 h -65.19 v -179.57 h -30.79 v 179.57" /><path
         id="path44"
         style="fill:#231f20;fill-opacity:1;fill-rule:nonzero;stroke:none"
         d="m 3955.93,744.75 h 202.38 v -28.789 h -170.78 v -95.59 h 152.78 V 591.57 H 3987.53 V 493.59 H 4160.3 V 464.801 H 3955.93 V 744.75" /><path
         id="path46"
         style="fill:#231f20;fill-opacity:1;fill-rule:nonzero;stroke:none"
         d="m 4218.74,671.559 h 30.79 V 635.57 c 13.6,22.391 35.19,40.391 70.79,40.391 49.99,0 79.19,-33.602 79.19,-82.789 V 464.801 h -30.8 v 120.781 c 0,38.387 -20.79,62.387 -57.19,62.387 -35.6,0 -61.99,-26 -61.99,-64.797 V 464.801 h -30.79 v 206.758" /><path
         id="path48"
         style="fill:#231f20;fill-opacity:1;fill-rule:nonzero;stroke:none"
         d="m 4436.74,671.559 h 34 l 69.59,-171.571 69.99,171.571 h 33.19 l -89.98,-208.368 h -27.2 l -89.59,208.368" /><path
         id="path50"
         style="fill:#231f20;fill-opacity:1;fill-rule:nonzero;stroke:none"
         d="m 4694.73,671.559 h 30.79 V 464.801 h -30.79 z m -2,79.179 h 35.2 V 716.75 h -35.2 v 33.988" /><path
         id="path52"
         style="fill:#231f20;fill-opacity:1;fill-rule:nonzero;stroke:none"
         d="m 4797.12,671.559 h 30.8 V 617.57 c 15.2,34.391 45.19,59.192 84.38,57.59 v -33.199 h -2.39 c -45.2,0 -81.99,-32.391 -81.99,-94.781 v -82.379 h -30.8 v 206.758" /><path
         id="path54"
         style="fill:#231f20;fill-opacity:1;fill-rule:nonzero;stroke:none"
         d="m 5121.5,567.18 v 0.8 c 0,44.391 -33.19,80.782 -76.79,80.782 -44.79,0 -75.58,-36.391 -75.58,-79.981 v -0.801 c 0,-44.398 32.79,-80.39 76.38,-80.39 44.8,0 75.99,35.992 75.99,79.59 z m -183.97,0 v 0.8 c 0,58.391 45.59,107.981 107.98,107.981 62,0 107.58,-48.789 107.58,-107.18 v -0.801 c 0,-58.39 -45.98,-107.98 -108.38,-107.98 -61.99,0 -107.18,48.789 -107.18,107.18" /><path
         id="path56"
         style="fill:#231f20;fill-opacity:1;fill-rule:nonzero;stroke:none"
         d="m 5208.73,671.559 h 30.79 V 635.57 c 13.6,22.391 35.19,40.391 70.79,40.391 49.99,0 79.19,-33.602 79.19,-82.789 V 464.801 h -30.8 v 120.781 c 0,38.387 -20.79,62.387 -57.19,62.387 -35.6,0 -61.99,-26 -61.99,-64.797 V 464.801 h -30.79 v 206.758" /><path
         id="path58"
         style="fill:#231f20;fill-opacity:1;fill-rule:nonzero;stroke:none"
         d="m 5455.12,671.559 h 30.79 V 636.77 c 13.61,20.39 32.01,39.191 66.8,39.191 33.59,0 55.19,-18 66.39,-41.191 14.79,22.789 36.78,41.191 72.78,41.191 47.6,0 76.79,-31.992 76.79,-83.191 V 464.801 h -30.79 v 120.781 c 0,39.988 -20,62.387 -53.6,62.387 -31.19,0 -57.18,-23.199 -57.18,-63.989 V 464.801 h -30.41 v 121.578 c 0,38.793 -20.39,61.59 -53.18,61.59 -32.8,0 -57.6,-27.199 -57.6,-65.199 V 464.801 h -30.79 v 206.758" /><path
         id="path60"
         style="fill:#231f20;fill-opacity:1;fill-rule:nonzero;stroke:none"
         d="m 5985.89,579.578 c -3.19,37.594 -24.79,70.383 -65.98,70.383 -36,0 -63.2,-29.992 -67.19,-70.383 z m -164.37,-12 v 0.801 c 0,59.59 42,107.582 99.19,107.582 61.19,0 96.39,-48.789 96.39,-109.18 0,-4 0,-6.402 -0.41,-10 h -163.97 c 4.39,-44.801 36,-69.992 72.78,-69.992 28.4,0 48.4,11.602 65.2,29.199 l 19.19,-17.199 C 5989.1,475.602 5963.9,460 5924.7,460 c -56.78,0 -103.18,43.582 -103.18,107.578" /><path
         id="path62"
         style="fill:#231f20;fill-opacity:1;fill-rule:nonzero;stroke:none"
         d="m 6071.11,671.559 h 30.79 V 635.57 c 13.6,22.391 35.2,40.391 70.79,40.391 49.99,0 79.19,-33.602 79.19,-82.789 V 464.801 h -30.8 v 120.781 c 0,38.387 -20.79,62.387 -57.19,62.387 -35.59,0 -61.99,-26 -61.99,-64.797 V 464.801 h -30.79 v 206.758" /><path
         id="path64"
         style="fill:#231f20;fill-opacity:1;fill-rule:nonzero;stroke:none"
         d="m 6328.31,519.59 v 124.781 h -28.8 v 27.188 h 28.8 v 62.39 h 30.79 v -62.39 h 65.58 V 644.371 H 6359.1 V 523.582 c 0,-25.191 13.99,-34.391 34.79,-34.391 10.4,0 19.2,2 30,7.2 v -26.403 c -10.8,-5.59 -22.4,-8.797 -37.2,-8.797 -33.19,0 -58.38,16.399 -58.38,58.399" /><path
         id="path66"
         style="fill:#231f20;fill-opacity:1;fill-rule:nonzero;stroke:none"
         d="m 6615.88,540.781 v 20 c -15.19,4.399 -35.59,8.797 -60.79,8.797 -38.79,0 -60.39,-16.797 -60.39,-42.789 v -0.801 c 0,-26 24,-41.187 51.99,-41.187 38,0 69.19,23.187 69.19,55.98 z m -152.37,-15.992 v 0.801 c 0,43.59 36,66.781 88.38,66.781 26.4,0 45.2,-3.601 63.59,-8.789 v 7.188 c 0,37.199 -22.79,56.402 -61.59,56.402 -24.39,0 -43.59,-6.41 -62.78,-15.211 l -9.2,25.199 c 22.79,10.399 45.19,17.199 75.19,17.199 29.18,0 51.59,-7.597 66.78,-22.8 14,-13.989 21.2,-33.989 21.2,-60.387 V 464.801 h -29.6 v 31.187 c -14.39,-18.789 -38.39,-35.59 -74.78,-35.59 -38.4,0 -77.19,21.993 -77.19,64.391" /><path
         id="path68"
         style="fill:#231f20;fill-opacity:1;fill-rule:nonzero;stroke:none"
         d="m 6713.5,756.75 h 30.79 V 464.801 H 6713.5 V 756.75" /><path
         id="path70"
         style="fill:#231f20;fill-opacity:1;fill-rule:nonzero;stroke:none"
         d="m 7071.46,683.961 v 0.801 c 0,22.398 -16.8,38.797 -39.59,38.797 -25.19,0 -42.39,-17.598 -42.39,-40.399 v -0.808 c 0,-16.391 6.8,-28.782 27.99,-51.582 35.59,11.992 53.99,29.191 53.99,53.191 z m 8.4,-159.973 -74.79,77.184 c -37.19,-13.594 -53.59,-36.391 -53.59,-59.992 v -0.801 c 0,-29.988 23.99,-52.789 58.39,-52.789 26.4,0 49.59,14 69.99,36.398 z m 19.2,-19.597 c -25.6,-27.59 -55.2,-43.602 -91.58,-43.602 -50.4,0 -87.99,31.602 -87.99,78.391 v 0.8 c 0,37.2 24.79,64 67.59,80.79 -19.2,22.39 -28,39.589 -28,61.582 v 0.808 c 0,36.789 29.6,66.391 73.99,66.391 39.19,0 67.99,-28.403 67.99,-63.192 v -0.8 c 0,-35.598 -25.2,-58.387 -66,-72.789 l 64,-65.192 c 12.39,18.004 23.59,39.203 33.59,62.391 l 26,-12 c -12.4,-26.399 -25.2,-50.391 -40.39,-70.379 l 48.79,-50 -24,-18.391 -43.99,45.192" /><path
         id="path72"
         style="fill:#231f20;fill-opacity:1;fill-rule:nonzero;stroke:none"
         d="m 1957.99,284.75 h 29.6 L 2163.96,60.3789 V 284.75 h 30.79 V 4.80078 h -25.19 L 1988.79,234.359 V 4.80078 h -30.8 V 284.75" /><path
         id="path74"
         style="fill:#231f20;fill-opacity:1;fill-rule:nonzero;stroke:none"
         d="m 2405.57,80.7813 v 19.9997 c -15.2,4.399 -35.6,8.797 -60.79,8.797 -38.8,0 -60.39,-16.7967 -60.39,-42.7889 v -0.8008 c 0,-26 23.99,-41.1875 51.99,-41.1875 37.99,0 69.19,23.1875 69.19,55.9805 z M 2253.19,64.7891 v 0.8007 c 0,43.5902 36,66.7812 88.39,66.7812 26.39,0 45.19,-3.601 63.59,-8.789 v 7.188 c 0,37.199 -22.8,56.402 -61.6,56.402 -24.39,0 -43.58,-6.41 -62.78,-15.211 l -9.2,25.199 c 22.8,10.399 45.19,17.199 75.19,17.199 29.19,0 51.59,-7.597 66.79,-22.8 13.99,-13.989 21.19,-33.989 21.19,-60.387 V 4.80078 h -29.59 V 35.9883 c -14.4,-18.7891 -38.4,-35.589862 -74.79,-35.589862 -38.4,0 -77.19,21.992162 -77.19,64.390662" /><path
         id="path76"
         style="fill:#231f20;fill-opacity:1;fill-rule:nonzero;stroke:none"
         d="M 2509.19,59.5898 V 184.371 h -28.8 v 27.188 h 28.8 v 62.39 h 30.79 v -62.39 h 65.59 v -27.188 h -65.59 V 63.582 c 0,-25.1914 14,-34.3906 34.8,-34.3906 10.4,0 19.2,2 29.99,7.1992 V 9.98828 c -10.79,-5.58984 -22.4,-8.79687 -37.19,-8.79687 -33.19,0 -58.39,16.39839 -58.39,58.39839" /><path
         id="path78"
         style="fill:#231f20;fill-opacity:1;fill-rule:nonzero;stroke:none"
         d="M 2656.78,83.1797 V 211.559 h 30.79 V 90.7813 c 0,-38.4024 20.8,-62.3907 57.2,-62.3907 35.19,0 61.99,26 61.99,64.7891 V 211.559 h 30.39 V 4.80078 h -30.39 V 40.7891 c -14,-22.3985 -35.2,-40.390662 -70.79,-40.390662 -49.99,0 -79.19,33.601562 -79.19,82.781262" /><path
         id="path80"
         style="fill:#231f20;fill-opacity:1;fill-rule:nonzero;stroke:none"
         d="m 2906.38,211.559 h 30.79 V 157.57 c 15.2,34.391 45.19,59.192 84.39,57.59 v -33.199 h -2.4 c -45.19,0 -81.99,-32.391 -81.99,-94.7813 V 4.80078 h -30.79 V 211.559" /><path
         id="path82"
         style="fill:#231f20;fill-opacity:1;fill-rule:nonzero;stroke:none"
         d="m 3195.16,80.7813 v 19.9997 c -15.2,4.399 -35.6,8.797 -60.79,8.797 -38.8,0 -60.39,-16.7967 -60.39,-42.7889 v -0.8008 c 0,-26 23.99,-41.1875 51.99,-41.1875 37.99,0 69.19,23.1875 69.19,55.9805 z M 3042.78,64.7891 v 0.8007 c 0,43.5902 36,66.7812 88.39,66.7812 26.39,0 45.19,-3.601 63.59,-8.789 v 7.188 c 0,37.199 -22.8,56.402 -61.6,56.402 -24.39,0 -43.58,-6.41 -62.78,-15.211 l -9.2,25.199 c 22.8,10.399 45.19,17.199 75.19,17.199 29.19,0 51.59,-7.597 66.78,-22.8 14,-13.989 21.2,-33.989 21.2,-60.387 V 4.80078 h -29.59 V 35.9883 c -14.4,-18.7891 -38.4,-35.589862 -74.79,-35.589862 -38.4,0 -77.19,21.992162 -77.19,64.390662" /><path
         id="path84"
         style="fill:#231f20;fill-opacity:1;fill-rule:nonzero;stroke:none"
         d="m 3292.77,296.75 h 30.8 V 4.80078 h -30.8 V 296.75" /><path
         id="path86"
         style="fill:#231f20;fill-opacity:1;fill-rule:nonzero;stroke:none"
         d="m 3637.94,141.969 c 42,0 71.99,21.601 71.99,57.59 v 0.8 c 0,34.403 -26.4,55.2 -71.58,55.2 h -86.39 V 141.969 Z M 3520.36,284.75 h 120.38 c 34.39,0 61.99,-10.398 79.59,-28 13.59,-13.59 21.59,-33.191 21.59,-55.191 v -0.797 c 0,-46.391 -31.99,-73.582 -75.99,-81.582 L 3751.92,4.80078 h -38.79 L 3631.94,113.582 h -79.98 V 4.80078 h -31.6 V 284.75" /><path
         id="path88"
         style="fill:#231f20;fill-opacity:1;fill-rule:nonzero;stroke:none"
         d="m 3951.93,119.578 c -3.19,37.594 -24.8,70.383 -65.99,70.383 -35.99,0 -63.19,-29.992 -67.18,-70.383 z m -164.38,-12 v 0.801 c 0,59.59 42.01,107.582 99.19,107.582 61.2,0 96.39,-48.789 96.39,-109.18 0,-4 0,-6.402 -0.4,-9.9997 h -163.97 c 4.39,-44.8008 35.99,-69.9922 72.78,-69.9922 28.4,0 48.4,11.6015 65.19,29.1992 l 19.19,-17.1992 C 3955.13,15.6016 3929.94,0 3890.74,0 3833.95,0 3787.55,43.582 3787.55,107.578" /><path
         id="path90"
         style="fill:#231f20;fill-opacity:1;fill-rule:nonzero;stroke:none"
         d="m 4019.96,31.1914 15.59,21.9883 c 22.4,-16.7891 47.2,-26.3906 71.59,-26.3906 24.8,0 42.8,12.8007 42.8,32.8007 v 0.7891 c 0,20.8008 -24.4,28.8008 -51.59,36.4024 -32.4,9.1987 -68.39,20.3987 -68.39,58.3907 v 0.797 c 0,35.59 29.59,59.191 70.39,59.191 25.19,0 53.18,-8.801 74.38,-22.801 l -14,-23.187 c -19.19,12.387 -41.19,19.988 -61.18,19.988 -24.4,0 -40,-12.789 -40,-29.988 v -0.801 c 0,-19.601 25.59,-27.199 53.19,-35.601 31.99,-9.598 66.39,-21.989 66.39,-59.188 v -0.8007 c 0,-39.1915 -32.4,-61.992237 -73.59,-61.992237 -29.6,0 -62.39,11.601537 -85.58,30.402337" /><path
         id="path92"
         style="fill:#231f20;fill-opacity:1;fill-rule:nonzero;stroke:none"
         d="m 4407.52,107.18 v 0.8 c 0,44.391 -33.2,80.782 -76.79,80.782 -44.8,0 -75.59,-36.391 -75.59,-79.981 v -0.801 c 0,-44.398 32.8,-80.3902 76.39,-80.3902 44.79,0 75.99,35.9922 75.99,79.5902 z m -183.98,0 v 0.8 c 0,58.391 45.6,107.981 107.99,107.981 61.99,0 107.58,-48.789 107.58,-107.18 V 107.98 C 4439.11,49.5898 4393.12,0 4330.73,0 4268.74,0 4223.54,48.7891 4223.54,107.18" /><path
         id="path94"
         style="fill:#231f20;fill-opacity:1;fill-rule:nonzero;stroke:none"
         d="M 4491.54,83.1797 V 211.559 h 30.8 V 90.7813 c 0,-38.4024 20.79,-62.3907 57.19,-62.3907 35.19,0 61.99,26 61.99,64.7891 V 211.559 h 30.39 V 4.80078 h -30.39 V 40.7891 c -14,-22.3985 -35.2,-40.390662 -70.79,-40.390662 -49.99,0 -79.19,33.601562 -79.19,82.781262" /><path
         id="path96"
         style="fill:#231f20;fill-opacity:1;fill-rule:nonzero;stroke:none"
         d="m 4741.14,211.559 h 30.79 V 157.57 c 15.2,34.391 45.19,59.192 84.38,57.59 v -33.199 h -2.39 c -45.19,0 -81.99,-32.391 -81.99,-94.7813 V 4.80078 h -30.79 V 211.559" /><path
         id="path98"
         style="fill:#231f20;fill-opacity:1;fill-rule:nonzero;stroke:none"
         d="m 4881.54,107.18 v 0.8 c 0,58.391 45.59,107.981 105.99,107.981 39.18,0 63.59,-16.402 82.78,-36.789 l -20.39,-21.602 c -16.4,17.2 -34.8,31.192 -62.8,31.192 -41.99,0 -73.98,-35.59 -73.98,-79.981 v -0.801 c 0,-44.8003 32.79,-80.3902 75.99,-80.3902 26.39,0 46.78,13.1993 63.18,30.8008 l 19.6,-18.4023 C 5051.12,16.8008 5026.31,0 4987.53,0 c -60.4,0 -105.99,49.1914 -105.99,107.18" /><path
         id="path100"
         style="fill:#231f20;fill-opacity:1;fill-rule:nonzero;stroke:none"
         d="m 5268.31,119.578 c -3.2,37.594 -24.8,70.383 -65.99,70.383 -36,0 -63.19,-29.992 -67.19,-70.383 z m -164.38,-12 v 0.801 c 0,59.59 42,107.582 99.19,107.582 61.19,0 96.39,-48.789 96.39,-109.18 0,-4 0,-6.402 -0.4,-9.9997 h -163.98 c 4.4,-44.8008 36,-69.9922 72.79,-69.9922 28.39,0 48.39,11.6015 65.19,29.1992 L 5292.3,38.7891 C 5271.51,15.6016 5246.31,0 5207.11,0 5150.33,0 5103.93,43.582 5103.93,107.578" /><path
         id="path102"
         style="fill:#231f20;fill-opacity:1;fill-rule:nonzero;stroke:none"
         d="m 5460.33,45.5898 19.59,23.1915 c 29.2,-26.3907 57.19,-39.5899 95.98,-39.5899 37.6,0 62.4,20 62.4,47.5977 v 0.789 c 0,26.0039 -14.01,40.8009 -72.8,53.1919 -64.38,14.011 -93.98,34.8 -93.98,80.789 v 0.8 c 0,44 38.8,76.391 91.98,76.391 40.8,0 69.99,-11.602 98.39,-34.391 l -18.4,-24.398 c -25.99,21.187 -51.99,30.391 -80.78,30.391 -36.4,0 -59.6,-20 -59.6,-45.192 v -0.801 c 0,-26.39 14.41,-41.199 76,-54.39 62.38,-13.598 91.18,-36.387 91.18,-79.1877 v -0.8008 c 0,-47.9922 -39.99,-79.191437 -95.59,-79.191437 -44.39,0 -80.78,14.812537 -114.37,44.800737" /><path
         id="path104"
         style="fill:#231f20;fill-opacity:1;fill-rule:nonzero;stroke:none"
         d="m 5716.71,107.18 v 0.8 c 0,58.391 45.6,107.981 105.99,107.981 39.19,0 63.59,-16.402 82.78,-36.789 l -20.39,-21.602 c -16.39,17.2 -34.79,31.192 -62.79,31.192 -41.99,0 -73.98,-35.59 -73.98,-79.981 v -0.801 c 0,-44.8003 32.79,-80.3902 75.98,-80.3902 26.4,0 46.79,13.1993 63.19,30.8008 l 19.6,-18.4023 C 5886.29,16.8008 5861.49,0 5822.7,0 5762.31,0 5716.71,49.1914 5716.71,107.18" /><path
         id="path106"
         style="fill:#231f20;fill-opacity:1;fill-rule:nonzero;stroke:none"
         d="m 5960.72,211.559 h 30.79 V 4.80078 h -30.79 z m -2,79.179 h 35.19 V 256.75 h -35.19 v 33.988" /><path
         id="path108"
         style="fill:#231f20;fill-opacity:1;fill-rule:nonzero;stroke:none"
         d="m 6214.68,119.578 c -3.19,37.594 -24.79,70.383 -65.98,70.383 -36,0 -63.2,-29.992 -67.19,-70.383 z m -164.37,-12 v 0.801 c 0,59.59 42,107.582 99.19,107.582 61.19,0 96.38,-48.789 96.38,-109.18 0,-4 0,-6.402 -0.4,-9.9997 h -163.97 c 4.39,-44.8008 36,-69.9922 72.78,-69.9922 28.4,0 48.4,11.6015 65.2,29.1992 l 19.19,-17.1992 C 6217.89,15.6016 6192.69,0 6153.49,0 6096.7,0 6050.31,43.582 6050.31,107.578" /><path
         id="path110"
         style="fill:#231f20;fill-opacity:1;fill-rule:nonzero;stroke:none"
         d="m 6299.91,211.559 h 30.79 V 175.57 c 13.6,22.391 35.19,40.391 70.79,40.391 49.99,0 79.19,-33.602 79.19,-82.789 V 4.80078 h -30.8 V 125.582 c 0,38.387 -20.79,62.387 -57.19,62.387 -35.59,0 -61.99,-26 -61.99,-64.797 V 4.80078 h -30.79 V 211.559" /><path
         id="path112"
         style="fill:#231f20;fill-opacity:1;fill-rule:nonzero;stroke:none"
         d="m 6533.5,107.18 v 0.8 c 0,58.391 45.6,107.981 105.99,107.981 39.19,0 63.59,-16.402 82.78,-36.789 l -20.39,-21.602 c -16.4,17.2 -34.79,31.192 -62.79,31.192 -41.99,0 -73.99,-35.59 -73.99,-79.981 v -0.801 c 0,-44.8003 32.8,-80.3902 75.99,-80.3902 26.4,0 46.79,13.1993 63.18,30.8008 l 19.6,-18.4023 C 6703.08,16.8008 6678.29,0 6639.49,0 6579.1,0 6533.5,49.1914 6533.5,107.18" /><path
         id="path114"
         style="fill:#231f20;fill-opacity:1;fill-rule:nonzero;stroke:none"
         d="m 6920.27,119.578 c -3.19,37.594 -24.8,70.383 -65.99,70.383 -35.99,0 -63.19,-29.992 -67.18,-70.383 z m -164.38,-12 v 0.801 c 0,59.59 42.01,107.582 99.19,107.582 61.2,0 96.39,-48.789 96.39,-109.18 0,-4 0,-6.402 -0.4,-9.9997 H 6787.1 c 4.39,-44.8008 35.99,-69.9922 72.78,-69.9922 28.4,0 48.4,11.6015 65.19,29.1992 l 19.19,-17.1992 C 6923.47,15.6016 6898.28,0 6859.08,0 6802.29,0 6755.89,43.582 6755.89,107.578" /><path
         id="path116"
         style="fill:#231f20;fill-opacity:1;fill-rule:nonzero;stroke:none"
         d="m 6988.3,31.1914 15.59,21.9883 c 22.4,-16.7891 47.2,-26.3906 71.59,-26.3906 24.8,0 42.8,12.8007 42.8,32.8007 v 0.7891 c 0,20.8008 -24.4,28.8008 -51.59,36.4024 -32.4,9.1987 -68.39,20.3987 -68.39,58.3907 v 0.797 c 0,35.59 29.59,59.191 70.39,59.191 25.19,0 53.18,-8.801 74.38,-22.801 l -14,-23.187 c -19.19,12.387 -41.19,19.988 -61.18,19.988 -24.4,0 -40,-12.789 -40,-29.988 v -0.801 c 0,-19.601 25.59,-27.199 53.19,-35.601 31.99,-9.598 66.39,-21.989 66.39,-59.188 v -0.8007 c 0,-39.1915 -32.4,-61.992237 -73.59,-61.992237 -29.6,0 -62.39,11.601537 -85.58,30.402337" /><path
         id="path118"
         style="fill:#3871c1;fill-opacity:1;fill-rule:nonzero;stroke:none"
         d="M 0.550781,1554.55 C 0.238281,1543.39 0,1531.14 0,1519.5 0,1429.92 15.2852,1318.05 21.5742,1275.84 394.77,1044.82 669.371,691.191 799.602,274.781 954.594,356.738 1095.43,469.082 1210.51,602.68 l -937.971,937.97 c -89.859,0.49 -181.0937,5.15 -271.988219,13.9" /><path
         id="path120"
         style="fill:#73c82c;fill-opacity:1;fill-rule:nonzero;stroke:none"
         d="M 712.047,296.16 C 590.109,652.379 356.602,957.801 43.8516,1170.15 138.184,802.23 380.895,484.762 712.047,296.16" /><path
         id="path122"
         style="fill:#59c7bb;fill-opacity:1;fill-rule:nonzero;stroke:none"
         d="m 272.633,1617.21 281.234,281.23 C 378.918,1888.03 204.855,1865.28 34.8477,1830.58 20.0625,1765.07 9.91406,1698.2 4.5625,1631.05 c 89.6211,-8.69 179.5745,-13.34 268.0705,-13.84" /><path
         id="path124"
         style="fill:#f68712;fill-opacity:1;fill-rule:nonzero;stroke:none"
         d="m 700.492,1904.3 c -11.058,-0.26 -22.187,-0.53 -33.316,-0.84 L 382.32,1618.63 c 361.871,11.32 711.62,88.28 1042.4,229.35 -238.41,42.44 -482.693,61.05 -724.228,56.32" /><path
         id="path126"
         style="fill:#ed1c24;fill-opacity:1;fill-rule:nonzero;stroke:none"
         d="M 1521,1806.76 C 1160.43,1642.63 777.047,1553.71 379.508,1541.95 l 395.926,-395.93 414.346,414.34 53.51,-53.51 L 828.945,1092.51 1259.1,662.352 c 188.31,244.816 291.57,547.528 291.57,857.148 0,96.16 -9.97,192.59 -29.67,287.26" /></g></g></svg>