<svg id="Assault" xmlns="http://www.w3.org/2000/svg" viewBox="0 0 23 23"><defs><style>.cls-1{fill:#84161e;}.cls-2{fill:#fff;}</style></defs><circle class="cls-1" cx="11.5" cy="11.5" r="11.5"/><g id="NewFistV2"><path class="cls-2" d="M8.57,18.89a2.39,2.39,0,0,0,2,.81,7,7,0,0,0,2.67-.34.07.07,0,0,0,0-.06c-3.2-2.34-.42-4.53-2.65-6.93-.51-.55-.9-1-1-1.09s-1-1.3-.73-1.44c.4-.26,1.49,1.57,4.1,1.9.72.09,1.64,0,1.67-.4,0-.62-3-2.76-4.21-4.75C9.54,5.11,6.31,6.27,5,7.93c-1,1.24.27,2.29-.29,3.48C3.08,14.87,6.05,16.67,8.57,18.89Z" transform="translate(-0.5 -0.5)"/><path class="cls-2" d="M11.27,5.94c-.3-.39,1.92-1,3-1.52a.75.75,0,0,1,.85,0c.54.28,1.63,1.61,1.52,2a1.2,1.2,0,0,1-.6.41c-.77.3-1.94.86-2.78,1.12C12.94,8.05,11.84,6.7,11.27,5.94Z" transform="translate(-0.5 -0.5)"/><path class="cls-2" d="M16.33,9.24" transform="translate(-0.5 -0.5)"/><path class="cls-2" d="M12.55,13.46a.73.73,0,0,1,.41-.34,40,40,0,0,0,6-2.21c.13-.08.61-.27.83-.08a2.66,2.66,0,0,1,.4,2.43c-.13.3-.66.57-.72.6a48.81,48.81,0,0,1-6,1.93.66.66,0,0,1-.47-.1A7,7,0,0,1,12.55,13.46Z" transform="translate(-0.5 -0.5)"/><path class="cls-2" d="M14,9c-.18-.46,2.44-1.14,3.57-1.63a.76.76,0,0,1,.84,0,2.91,2.91,0,0,1,.8,2.19,1.28,1.28,0,0,1-.6.4c-.77.31-1.74.77-2.58,1C15.64,11.09,14.21,9.61,14,9Z" transform="translate(-0.5 -0.5)"/><path class="cls-2" d="M13.13,17.1c0-.25.37-.31.43-.32a31.11,31.11,0,0,0,5.31-1.67c.13-.08.63-.25.84,0a1.55,1.55,0,0,1,.14,1.83c-.14.29-.68.53-.75.57a21.54,21.54,0,0,1-4.28,1.26.81.81,0,0,1-.44,0C14,18.61,12.93,18.21,13.13,17.1Z" transform="translate(-0.5 -0.5)"/></g></svg>