<svg id="_24x24_V2" data-name="24x24 V2" xmlns="http://www.w3.org/2000/svg" viewBox="0 0 23 23"><defs><style>.cls-1{fill:#252461;}.cls-2{fill:#fff;}</style></defs><g id="Layer_1" data-name="Layer 1"><circle class="cls-1" cx="11.5" cy="11.5" r="11.5"/></g><path class="cls-2" d="M6.05,4V20.16a.31.31,0,0,0,.3.3h11.5a.31.31,0,0,0,.3-.3V4a.31.31,0,0,0-.3-.3H6.35A.31.31,0,0,0,6.05,4Zm1.19.59H11.4a.3.3,0,0,1,.3.3v6.32a.29.29,0,0,1-.3.3H7.24a.3.3,0,0,1-.3-.3V4.93A.31.31,0,0,1,7.24,4.63Zm1.5,9.72-1.2,1.17-.6-.81v-2a.31.31,0,0,1,.3-.3H11.4a.3.3,0,0,1,.3.3v6.53a.3.3,0,0,1-.3.3H8.9l1.48-.72L9.07,18,10.23,16,8.92,16ZM17,19.57H12.89a.3.3,0,0,1-.3-.3V12.74a.3.3,0,0,1,.3-.3H17a.31.31,0,0,1,.3.3v6.53A.31.31,0,0,1,17,19.57Zm0-8H12.89a.29.29,0,0,1-.3-.3V4.93a.3.3,0,0,1,.3-.3H17a.31.31,0,0,1,.3.3v6.32A.3.3,0,0,1,17,11.55Z" transform="translate(-0.6 -0.6)"/></svg>