<?xml version="1.0" encoding="utf-8"?>
<!-- Generator: Adobe Illustrator 25.2.3, SVG Export Plug-In . SVG Version: 6.00 Build 0)  -->
<svg version="1.1" xmlns="http://www.w3.org/2000/svg" xmlns:xlink="http://www.w3.org/1999/xlink" x="0px" y="0px"
	 viewBox="0 0 24 24" style="enable-background:new 0 0 24 24;" xml:space="preserve">
<style type="text/css">
	.st0{fill:#417B5A;}
	.st1{fill:#FFFFFF;}
	.st2{font-family:'ArialRoundedMTBold';}
	.st3{font-size:8px;}
	.st4{fill:#24B34B;}
	.st5{fill:#29B34B;}
</style>
<g id="Layer_2">
	<g id="Layer_1">
		<circle class="st0" cx="12" cy="12" r="12"/>
	</g>
	<g>
		<polygon class="st1" points="7.33,17.86 20.32,12.73 15.33,8 2.34,13.14 		"/>
		<polygon class="st0" points="7.35,16.97 20.35,11.83 15.35,7.11 2.36,12.24 		"/>
		<polygon class="st1" points="7.33,16.1 20.32,10.97 15.33,6.24 2.34,11.38 		"/>
		<polygon class="st0" points="7.33,15.11 20.32,9.97 15.33,5.24 2.34,10.38 		"/>
		<polygon class="st1" points="7.33,14.05 20.32,8.91 15.33,4.18 2.34,9.32 		"/>
		<text transform="matrix(0.6541 0.6273 -0.9323 0.3616 7.553 8.2477)" class="st0 st2 st3">$</text>
		<rect x="13.1" y="10.34" class="st0" width="4.84" height="11.53"/>
		
			<rect x="13.24" y="10.01" transform="matrix(-1.836970e-16 1 -1 -1.836970e-16 31.1587 0.4458)" class="st0" width="4.23" height="11.59"/>
		<rect x="13.96" y="11.22" class="st1" width="3.13" height="9.93"/>
		
			<rect x="13.96" y="11.22" transform="matrix(-1.836970e-16 1 -1 -1.836970e-16 31.7154 0.6594)" class="st1" width="3.13" height="9.93"/>
	</g>
</g>
<g id="Layer_3">
	<circle class="st4" cx="37" cy="8" r="8"/>
	<g>
		<polygon class="st1" points="33.72,12.14 42.46,8.68 39.1,5.51 30.36,8.96 		"/>
		<polygon class="st5" points="33.73,11.5 42.47,8.05 39.11,4.87 30.37,8.32 		"/>
		<polygon class="st1" points="33.73,10.53 42.47,7.07 39.11,3.9 30.37,7.35 		"/>
		<polygon class="st5" points="33.73,9.84 42.47,6.39 39.11,3.21 30.37,6.66 		"/>
		<polygon class="st1" points="33.72,8.93 42.46,5.48 39.1,2.3 30.36,5.76 		"/>
		<text transform="matrix(0.7423 0.7119 -0.9535 0.3014 33.3904 4.9028)" class="st5 st2" style="font-size:5.5573px;">$</text>
		<rect x="37.6" y="6.44" class="st5" width="3.26" height="7.76"/>
		
			<rect x="37.7" y="6.22" transform="matrix(-1.836970e-16 1 -1 -1.836970e-16 49.2326 -29.0022)" class="st5" width="2.84" height="7.8"/>
		<rect x="38.18" y="7.03" class="st1" width="2.1" height="6.68"/>
		
			<rect x="38.18" y="7.03" transform="matrix(-1.836970e-16 1 -1 -1.836970e-16 49.607 -28.8586)" class="st1" width="2.1" height="6.68"/>
	</g>
</g>
</svg>
