<?xml version="1.0" encoding="utf-8"?>
<!-- Generator: Adobe Illustrator 25.2.3, SVG Export Plug-In . SVG Version: 6.00 Build 0)  -->
<svg version="1.1" xmlns="http://www.w3.org/2000/svg" xmlns:xlink="http://www.w3.org/1999/xlink" x="0px" y="0px"
	 viewBox="0 0 24 24" style="enable-background:new 0 0 24 24;" xml:space="preserve">
<style type="text/css">
	.st0{fill:#2C4251;}
	.st1{display:none;}
	.st2{display:inline;fill:none;stroke:#FFFFFF;stroke-width:0.75;stroke-miterlimit:10;}
	.st3{fill:none;stroke:#FFFFFF;stroke-width:0.5;stroke-miterlimit:10;}
	.st4{display:inline;}
	.st5{fill:#FFFFFF;}
	.st6{display:inline;fill:#FFFFFF;}
	.st7{fill:#36479D;}
</style>
<g id="_x32_4x24_1_">
	<circle class="st0" cx="12" cy="12" r="12"/>
	<g class="st1">
		<path class="st2" d="M4.73,10.57l1.38-0.15C6.8,10.34,7.5,9.67,7.68,8.93c0.18-0.75-0.22-1.29-0.9-1.22L5.4,7.86
			C4.97,7.91,4.53,8.33,4.41,8.8L4.17,9.8C4.05,10.27,4.3,10.61,4.73,10.57z"/>
		<path class="st2" d="M20.4,16.67l-5.94-4.17l3.49-1.71l1.06,2.55c0.16,0.38,0.65,0.43,1.09,0.1c0.44-0.33,0.68-0.9,0.52-1.28
			l-1.43-3.43c-0.02-0.04-0.05-0.04-0.08-0.06c-0.02-0.01-0.02-0.02-0.04-0.03c-0.03-0.01-0.07,0-0.11,0.01
			c-0.05,0-0.1-0.01-0.16,0.01l-4.09,2l-4.14-1.65L11.4,8.2l3.13-0.55c0.44-0.08,0.86-0.52,0.95-0.98l0,0
			c0.09-0.47-0.19-0.78-0.63-0.7l-3.8,0.67c-0.07,0.01-0.13,0.06-0.18,0.13c-0.01,0.01-0.03,0.01-0.04,0.02l-5.91,5.76l-2.31-0.68
			c-0.37-0.11-0.87,0.18-1.12,0.64c-0.25,0.46-0.15,0.92,0.21,1.03l3.14,0.93c0.07,0.02,0.14-0.02,0.21-0.08
			c0.01-0.01,0.03-0.01,0.04-0.02l2.18-2.12l5.19,1.54l6.6,4.63c0.32,0.22,0.86,0.04,1.21-0.41l0.08-0.1
			C20.69,17.44,20.71,16.89,20.4,16.67z"/>
	</g>
	<path class="st3" d="M14.47,12.14l3.49-1.71l1.06,2.55c0.16,0.38,0.65,0.43,1.09,0.1c0.44-0.33,0.68-0.9,0.52-1.28l-1.43-3.43
		c-0.02-0.04-0.05-0.04-0.08-0.06c-0.02-0.01-0.02-0.02-0.04-0.03c-0.03-0.01-0.07,0-0.11,0.01c-0.05,0-0.1-0.01-0.16,0.01l-4.09,2
		l-4.14-1.65l0.83-0.81l3.13-0.55c0.44-0.08,0.86-0.52,0.95-0.98l0,0c0.09-0.47-0.19-0.78-0.63-0.7l-3.8,0.67
		c-0.07,0.01-0.13,0.06-0.18,0.13c-0.01,0.01-0.03,0.01-0.04,0.02L8.21,8.85c0,0-0.25-0.55-0.71-0.67L6.16,7.82
		C5.74,7.71,5.18,7.95,4.9,8.35L4.31,9.19C4.04,9.58,4.15,10,4.57,10.11l1.34,0.35c0.26,0.07,0.58,0.16,0.58,0.16l-1.54,1.56
		l-2.31-0.68c-0.37-0.11-0.87,0.18-1.12,0.64c-0.25,0.46-0.15,0.92,0.21,1.03l3.14,0.93c0.07,0.02,0.14-0.02,0.21-0.08
		C5.09,14,5.1,14,5.11,13.99l2.18-2.12l5.19,1.54c1.25,0.88,1.89,1.32,3.14,2.2c0.95,0.67,2.51,1.76,3.46,2.43
		c0.08,0.03,0.32,0.14,0.59,0.05c0.22-0.07,0.44-0.23,0.61-0.46l0.08-0.1c0.35-0.45,0.37-0.99,0.05-1.22
		c-0.94-0.66-1.89-1.32-2.83-1.99C16.55,13.59,15.51,12.87,14.47,12.14z"/>
</g>
<g id="_x32_4x24_wPlacard" class="st1">
	<circle class="st4" cx="12" cy="12" r="12"/>
	<g class="st4">
		<path class="st3" d="M4.62,11.55l1.42-0.24c0.7-0.12,1.36-0.74,1.48-1.4c0.12-0.66-0.35-1.09-1.05-0.97L5.06,9.18
			C4.62,9.25,4.2,9.65,4.12,10.07l-0.16,0.87C3.88,11.35,4.18,11.63,4.62,11.55z"/>
		<path class="st3" d="M21.44,15.58l-6.56-3.12l3.46-1.74l1.34,2.11c0.2,0.31,0.71,0.31,1.14,0c0.43-0.31,0.62-0.83,0.41-1.14
			l-1.8-2.84c-0.02-0.03-0.06-0.03-0.09-0.04c-0.02-0.01-0.03-0.02-0.05-0.02c-0.04,0-0.07,0.01-0.11,0.02
			c-0.06,0.01-0.11,0-0.17,0.03l-4.05,2.04l-4.45-1.1L11.31,9l3.19-0.72c0.44-0.1,0.84-0.51,0.89-0.92l0,0
			c0.05-0.41-0.27-0.66-0.72-0.56l-3.87,0.87c-0.07,0.02-0.13,0.07-0.18,0.12c-0.01,0.01-0.03,0.01-0.04,0.02L5,13.24l-2.46-0.41
			c-0.39-0.06-0.88,0.22-1.1,0.63c-0.22,0.41-0.07,0.8,0.32,0.87l3.35,0.55c0.07,0.01,0.14-0.03,0.21-0.08
			c0.01-0.01,0.03-0.01,0.04-0.02l2.06-1.99l5.53,0.91l7.28,3.46c0.35,0.17,0.89-0.03,1.21-0.44l0.07-0.09
			C21.82,16.21,21.79,15.74,21.44,15.58z"/>
	</g>
	<g class="st4">
		<polygon class="st5" points="8.55,17.42 10.17,17.42 9.25,14.88 9.21,14.88 7.63,14.88 		"/>
		<polygon class="st5" points="7.57,15.28 7.1,17.06 8.19,17.06 		"/>
	</g>
	<rect x="7.45" y="16.9" class="st6" width="0.09" height="0.09"/>
	<g class="st4">
		<polygon class="st5" points="14.97,21.24 16.59,21.24 15.67,18.71 15.63,18.71 14.05,18.71 		"/>
		<polygon class="st5" points="13.98,19.11 13.52,20.88 14.6,20.88 		"/>
	</g>
	<g class="st4">
		<polygon class="st5" points="13.45,4.63 15.07,4.63 14.15,2.09 14.11,2.09 12.53,2.09 		"/>
		<polygon class="st5" points="12.46,2.49 12,4.27 13.08,4.27 		"/>
	</g>
</g>
<g id="_x31_6x16">
	<circle class="st7" cx="37" cy="8" r="8"/>
	<path class="st3" d="M38.77,8.04l2.32-1.13l0.7,1.69c0.1,0.25,0.43,0.28,0.72,0.07c0.29-0.22,0.45-0.6,0.34-0.85L41.9,5.54
		c-0.01-0.02-0.04-0.03-0.06-0.04c-0.01-0.01-0.02-0.02-0.03-0.02c-0.02-0.01-0.04,0-0.07,0.01c-0.04,0-0.07-0.01-0.11,0.01
		l-2.71,1.33l-2.75-1.1l0.55-0.54l2.08-0.37c0.29-0.05,0.57-0.34,0.63-0.65l0,0c0.06-0.31-0.13-0.52-0.42-0.47l-2.52,0.44
		c-0.05,0.01-0.09,0.04-0.12,0.08c-0.01,0.01-0.02,0.01-0.03,0.01l-1.75,1.61c0,0-0.16-0.37-0.47-0.45l-0.89-0.23
		c-0.28-0.07-0.65,0.08-0.84,0.35l-0.39,0.56c-0.18,0.26-0.11,0.54,0.17,0.61l0.89,0.23c0.17,0.05,0.38,0.1,0.38,0.1l-1.02,1.03
		l-1.53-0.45c-0.24-0.07-0.58,0.12-0.74,0.42c-0.17,0.3-0.1,0.61,0.14,0.68l2.08,0.62c0.04,0.01,0.09-0.01,0.14-0.05
		c0.01-0.01,0.02-0.01,0.03-0.01L34,7.86l3.44,1.02c0.83,0.58,1.65,1.16,2.48,1.74c0.63,0.44,1.26,0.89,1.89,1.33
		c0.06,0.02,0.21,0.09,0.39,0.03c0.14-0.05,0.29-0.15,0.41-0.3l0.05-0.07c0.23-0.3,0.25-0.66,0.03-0.81
		c-0.63-0.44-1.25-0.88-1.88-1.32C40.14,9,39.45,8.52,38.77,8.04z"/>
</g>
<g id="_x31_6x16_wPlacard" class="st1">
	<circle class="st4" cx="37" cy="8" r="8"/>
	<g class="st4">
		<path class="st3" d="M32.08,7.7l0.95-0.16c0.47-0.08,0.91-0.5,0.99-0.93c0.08-0.44-0.23-0.73-0.7-0.65l-0.95,0.16
			c-0.29,0.05-0.57,0.31-0.63,0.59l-0.11,0.58C31.59,7.57,31.79,7.75,32.08,7.7z"/>
		<path class="st3" d="M43.29,10.38L38.92,8.3l2.31-1.16l0.9,1.41c0.13,0.21,0.47,0.21,0.76,0C43.17,8.34,43.3,8,43.16,7.79
			l-1.2-1.89c-0.01-0.02-0.04-0.02-0.06-0.03c-0.01,0-0.02-0.01-0.03-0.02c-0.02,0-0.05,0-0.07,0.01c-0.04,0-0.07,0-0.11,0.02
			l-2.7,1.36l-2.97-0.73L36.54,6l2.13-0.48c0.3-0.07,0.56-0.34,0.59-0.61l0,0c0.03-0.27-0.18-0.44-0.48-0.37L36.2,5.12
			c-0.05,0.01-0.09,0.04-0.12,0.08c-0.01,0.01-0.02,0.01-0.03,0.01l-3.72,3.61l-1.64-0.27c-0.26-0.04-0.59,0.15-0.73,0.42
			c-0.14,0.28-0.05,0.54,0.21,0.58l2.23,0.37c0.05,0.01,0.1-0.02,0.14-0.06c0.01-0.01,0.02-0.01,0.03-0.01l1.37-1.33l3.69,0.61
			l4.85,2.31c0.23,0.11,0.6-0.02,0.81-0.3l0.05-0.06C43.55,10.81,43.53,10.5,43.29,10.38z"/>
	</g>
	<g class="st4">
		<polygon class="st5" points="34.7,11.61 35.78,11.61 35.17,9.92 35.14,9.92 34.09,9.92 		"/>
		<polygon class="st5" points="34.04,10.19 33.74,11.37 34.46,11.37 		"/>
	</g>
	<rect x="33.97" y="11.27" class="st6" width="0.06" height="0.06"/>
	<g class="st4">
		<polygon class="st5" points="38.98,14.16 40.06,14.16 39.44,12.47 39.42,12.47 38.37,12.47 		"/>
		<polygon class="st5" points="38.32,12.74 38.01,13.92 38.74,13.92 		"/>
	</g>
	<g class="st4">
		<polygon class="st5" points="37.97,3.09 39.05,3.09 38.43,1.4 38.41,1.4 37.35,1.4 		"/>
		<polygon class="st5" points="37.31,1.66 37,2.85 37.72,2.85 		"/>
	</g>
</g>
</svg>
