<svg id="_24x24" data-name="24x24" xmlns="http://www.w3.org/2000/svg" viewBox="0 0 24 24"><defs><style>.cls-1{fill:#6b0f1b;}.cls-2{fill:#fff;}</style></defs><circle class="cls-1" cx="12" cy="12" r="12"/><g id="NewFistV2"><path class="cls-2" d="M8.49,19.08a2.56,2.56,0,0,0,2.16.85c1.16,0,2.83-.17,2.83-.36a.07.07,0,0,0,0-.06C10.05,17,13,14.72,10.63,12.17c-.53-.58-1-1.07-1-1.15s-1-1.37-.76-1.52c.42-.28,1.58,1.66,4.33,2,.76.09,1.74.05,1.77-.43,0-.66-3.14-2.92-4.45-5-1-1.57-4.4-.34-5.81,1.42-1,1.31.29,2.42-.3,3.68C2.68,14.82,5.83,16.72,8.49,19.08Z"/><path class="cls-2" d="M11.35,5.37c-.31-.42,2-1.09,3.22-1.6a.78.78,0,0,1,.89,0c.58.3,1.73,1.7,1.62,2.09a1.28,1.28,0,0,1-.64.43c-.81.32-2.05.91-2.94,1.18C13.12,7.6,12,6.17,11.35,5.37Z"/><path class="cls-2" d="M12.7,13.33a.74.74,0,0,1,.44-.36,40.89,40.89,0,0,0,6.33-2.34c.13-.09.65-.29.88-.08a2.8,2.8,0,0,1,.42,2.57c-.14.31-.7.6-.76.64a54.35,54.35,0,0,1-6.32,2,.59.59,0,0,1-.49-.11A7.56,7.56,0,0,1,12.7,13.33Z"/><path class="cls-2" d="M14.21,8.59C14,8.11,16.8,7.38,18,6.87a.77.77,0,0,1,.89,0c.58.3.95,1.92.84,2.31a1.23,1.23,0,0,1-.63.42c-.82.33-1.85.82-2.74,1.09C16,10.82,14.46,9.25,14.21,8.59Z"/><path class="cls-2" d="M13.32,17.18c0-.26.39-.33.46-.34a33.29,33.29,0,0,0,5.62-1.77c.13-.08.66-.26.88,0A1.64,1.64,0,0,1,20.43,17c-.15.3-.72.56-.79.6a21.81,21.81,0,0,1-4.53,1.33.81.81,0,0,1-.47,0C14.28,18.78,13.11,18.36,13.32,17.18Z"/></g></svg>