<svg id="_24x24" data-name="24x24" xmlns="http://www.w3.org/2000/svg" viewBox="0 0 24 24"><defs><style>.cls-1{fill:#f09021;}.cls-2{fill:#fff;}</style></defs><circle class="cls-1" cx="12" cy="12" r="12"/><path class="cls-2" d="M21.22,10.42C19.46,8.73,15.71,7.84,12,7.82s-7.46.91-9.22,2.6c-1,1-1.09,2.21-.16,3.62.74,1.13,2.1,3,3.59,2.91a9.19,9.19,0,0,0,3.51-1c.94-.84.62-.85,1.61-1.43a1.41,1.41,0,0,1,.67-.13,1.38,1.38,0,0,1,.67.13c1,.58.67.59,1.61,1.43a9.19,9.19,0,0,0,3.51,1c1.49.12,2.85-1.78,3.59-2.91C22.31,12.63,22.24,11.4,21.22,10.42ZM6.76,14.1c-1.22-.34-2.23-1.52-2-2.06.44-1,5.21-.32,5.34.66C10.18,13.32,8.46,14.57,6.76,14.1Zm10.48,0c-1.7.47-3.42-.78-3.34-1.4.13-1,4.9-1.63,5.34-.66C19.47,12.58,18.46,13.76,17.24,14.1Z"/></svg>