<svg id="_24x24" data-name="24x24" xmlns="http://www.w3.org/2000/svg" viewBox="0 0 24 24"><defs><style>.cls-1{fill:#5c6499;}.cls-2{fill:#fff;}</style></defs><circle class="cls-1" cx="12" cy="12" r="12"/><circle class="cls-2" cx="10.65" cy="17.17" r="2.36"/><path class="cls-2" d="M14.22,11.75c-1.49-.28-4.46-.55-5.07-.83C6.34,9.61,6.56,8.24,2.09,7.72V9c3.94.11,5,2.88,4.63,2.88s-3.15,0-4.54,0a.09.09,0,0,0-.09.09v4.6a.09.09,0,0,0,.1.09H7.52a3.09,3.09,0,0,1,3.12-2.76A3.14,3.14,0,0,1,13.8,16.7h1.77C15.26,13.1,15.57,12,14.22,11.75Z"/><polygon class="cls-2" points="11.15 9.41 12.49 5.59 14.71 8.13 19.14 5.82 18.21 9.95 22.1 10.08 19.92 13.07 22.32 15.96 17.94 17.85 20.6 15.64 18.51 13.05 20.14 11.02 16.8 10.89 17.6 7.8 14.39 9.49 12.8 7.6 11.15 9.41"/></svg>