<svg xmlns="http://www.w3.org/2000/svg" viewBox="0 0 24 24"><defs><style>.cls-1{fill:#73a5d4;}.cls-2{fill:#fff;}</style></defs><g id="_24x24_Door" data-name="24x24 Door"><circle class="cls-1" cx="12" cy="12" r="12"/><path class="cls-2" d="M18.9,3.61a.27.27,0,0,0-.26-.25,18.29,18.29,0,0,0-7.51.77C10.3,4.51,5.7,6.33,4,10.6c-.38,1-.41,9.27.41,9.29,9.28.18,9.28.18,14.49.1C19.09,20,18.92,5.62,18.9,3.61Zm-1.27,7a.27.27,0,0,1-.27.27c-3.37.08-7.33.09-11.26,0-.63,0,2.1-3.67,4.5-4.9a12,12,0,0,1,6.79-1.21.27.27,0,0,1,.24.27Z"/><polygon class="cls-2" points="11.2 8.09 10.98 6.36 12.69 7.27 14.44 5.71 14.21 7.21 16.01 6.92 14.37 8.3 15.71 10.31 12.83 9.57 10.63 10.38 10.75 9.31 8.73 8.96 11.2 8.09"/></g></svg>