<svg id="_24x24" data-name="24x24" xmlns="http://www.w3.org/2000/svg" viewBox="0 0 24 24"><defs><style>.cls-1{fill:#4085c5;}.cls-2{fill:#fff;}</style></defs><circle class="cls-1" cx="12" cy="12" r="12"/><path class="cls-2" d="M13.53,14a2.67,2.67,0,1,1-2.7,2.67A2.68,2.68,0,0,1,13.53,14Z"/><polygon class="cls-2" points="4.51 7.16 5.42 8.39 6.49 7.99 6.39 8.93 7.7 9.86 6.04 9.52 5.98 10.29 5.21 9.71 3.76 10.24 3.95 9.27 2.64 8.4 4.22 8.3 4.51 7.16"/><path class="cls-2" d="M2.8,10.73H3.89l5.77,0c.42,0-1.81-3.92-6.18-4.12l-.68,0V5.31l1,.07c5.06.59,7,4.11,8,4.21.76.08,4.09.63,5.8.95a1.36,1.36,0,0,1,.87.46c.39.39.54,3.57.67,5l-.1.11H17.21l-.09-.1c-.07-1.68-1.9-3-3.61-3a3.55,3.55,0,0,0-3.57,3,.1.1,0,0,1-.1.1h-7Z"/></svg>