<?xml version="1.0" encoding="utf-8"?>
<!-- Generator: Adobe Illustrator 25.2.3, SVG Export Plug-In . SVG Version: 6.00 Build 0)  -->
<svg version="1.1" xmlns="http://www.w3.org/2000/svg" xmlns:xlink="http://www.w3.org/1999/xlink" x="0px" y="0px"
	 viewBox="0 0 24 24" style="enable-background:new 0 0 24 24;" xml:space="preserve">
<style type="text/css">
	.st0{fill:#6E75A9;}
	.st1{fill:#FFFFFF;}
	.st2{fill:#614DA0;}
</style>
<g id="_x32_4x24">
	<circle class="st0" cx="12" cy="12" r="12"/>
	<circle class="st1" cx="10.65" cy="17.17" r="2.36"/>
	<path class="st1" d="M14.22,11.75c-1.49-0.28-4.46-0.55-5.07-0.84C6.34,9.61,6.56,8.24,2.09,7.72v1.3c3.93,0.11,5,2.89,4.63,2.89
		c-0.47,0-3.15,0.01-4.54,0.01c-0.05,0-0.09,0.04-0.09,0.09c0,0.6,0,3.99,0,4.6c0,0.06,0.05,0.09,0.1,0.09h5.32
		c0-1.52,1.6-2.76,3.12-2.76c1.52,0,3.16,1.24,3.16,2.76l1.78,0C15.26,13.1,15.57,12.01,14.22,11.75z"/>
	<polygon class="st1" points="11.15,9.41 12.49,5.59 14.71,8.13 19.14,5.82 18.21,9.95 22.1,10.08 19.92,13.07 22.32,15.96 
		17.94,17.85 20.6,15.64 18.51,13.05 20.15,11.02 16.8,10.89 17.6,7.8 14.39,9.49 12.8,7.6 	"/>
</g>
<g id="_x31_6x16">
	<circle class="st2" cx="37" cy="8" r="8"/>
	<circle class="st1" cx="36.1" cy="11.44" r="1.57"/>
	<path class="st1" d="M38.48,7.84c-0.99-0.19-2.97-0.37-3.38-0.56c-1.87-0.87-1.72-1.78-4.71-2.13v0.87
		c2.62,0.08,3.34,1.92,3.09,1.93c-0.32,0-2.1,0.01-3.03,0.01c-0.04,0-0.06,0.02-0.06,0.06c0,0.4,0,2.66,0,3.06
		c0,0.04,0.03,0.06,0.07,0.06h3.55c0-1.02,1.07-1.84,2.08-1.84c1.02,0,2.1,0.82,2.1,1.84l1.19,0C39.17,8.73,39.38,8.01,38.48,7.84z"
		/>
	<polygon class="st1" points="36.43,6.27 37.33,3.73 38.81,5.42 41.76,3.88 41.14,6.63 43.74,6.72 42.28,8.72 43.88,10.64 
		40.96,11.9 42.73,10.42 41.34,8.7 42.43,7.35 40.2,7.26 40.73,5.2 38.59,6.32 37.53,5.06 	"/>
</g>
</svg>
