<svg id="_24x24" data-name="24x24" xmlns="http://www.w3.org/2000/svg" viewBox="0 0 23 23"><defs><style>.cls-1{fill:#f89938;}.cls-2{fill:#fff;}</style></defs><circle class="cls-1" cx="11.5" cy="11.5" r="11.5"/><path class="cls-2" d="M21.08,9.71C19.35,8.05,15.65,7.17,12,7.15s-7.35.9-9.08,2.56c-1,1-1.07,2.18-.16,3.56.74,1.12,2.07,3,3.54,2.87a9.06,9.06,0,0,0,3.45-1c.93-.83.61-.84,1.59-1.41a1.39,1.39,0,0,1,.66-.13,1.33,1.33,0,0,1,.66.13c1,.57.66.58,1.59,1.41a9.06,9.06,0,0,0,3.45,1c1.47.12,2.8-1.75,3.54-2.87C22.15,11.89,22.08,10.68,21.08,9.71ZM6.84,13.33c-1.2-.33-2.2-1.49-2-2,.42-1,5.12-.32,5.25.65C10.21,12.57,8.51,13.8,6.84,13.33Zm10.32,0c-1.67.47-3.37-.76-3.29-1.37.13-1,4.83-1.61,5.25-.65C19.36,11.84,18.36,13,17.16,13.33Z" transform="translate(-0.5 -0.5)"/></svg>