<svg id="_24x24_Door" data-name="24x24 Door" xmlns="http://www.w3.org/2000/svg" viewBox="0 0 23 23"><defs><style>.cls-1{fill:#2f67b2;}.cls-2{fill:#fff;}</style></defs><circle class="cls-1" cx="11.5" cy="11.5" r="11.5"/><path class="cls-2" d="M18.53,3.58a.26.26,0,0,0-.25-.24,17.77,17.77,0,0,0-7.2.74c-.79.37-5.2,2.12-6.85,6.21-.37.92-.4,8.9.39,8.91,8.9.18,8.9.18,13.9.1C18.72,19.3,18.56,5.51,18.53,3.58Zm-1.21,6.68a.25.25,0,0,1-.26.26c-3.23.07-7,.09-10.8,0-.61,0,2-3.52,4.31-4.7a11.73,11.73,0,0,1,6.52-1.16.26.26,0,0,1,.23.26Z" transform="translate(-0.5 -0.5)"/><polygon class="cls-2" points="10.65 7.38 10.44 5.73 12.08 6.59 13.76 5.1 13.54 6.54 15.27 6.26 13.69 7.58 14.98 9.51 12.21 8.81 10.1 9.58 10.22 8.56 8.29 8.22 10.65 7.38"/></svg>