<?xml version="1.0" encoding="utf-8"?>
<!-- Generator: Adobe Illustrator 25.2.3, SVG Export Plug-In . SVG Version: 6.00 Build 0)  -->
<svg version="1.1" xmlns="http://www.w3.org/2000/svg" xmlns:xlink="http://www.w3.org/1999/xlink" x="0px" y="0px"
	 viewBox="0 0 24 24" style="enable-background:new 0 0 24 24;" xml:space="preserve">
<style type="text/css">
	.st0{fill:#4C9F70;}
	.st1{fill:#FFFFFF;}
	.st2{display:none;fill:#FFFFFF;}
	.st3{fill:#24B34B;}
</style>
<g id="Layer_2">
	<g id="Layer_1">
		<circle class="st0" cx="12" cy="12" r="12"/>
	</g>
	<path class="st1" d="M16.51,4.14c-2.4-1.31-5.41-0.43-6.72,1.97l-3.72,6.8l-1.7-0.93c-0.4-0.22-0.91-0.07-1.13,0.33l-0.35,0.64
		c-0.22,0.4-0.07,0.91,0.33,1.13l11.48,6.27c0.4,0.22,0.91,0.07,1.13-0.33l0.35-0.64c0.22-0.4,0.07-0.91-0.33-1.13l-1.08-0.59
		l0.69-1.26l-1.09-1.89l-1.24,2.26L7.7,13.81l2.99-5.47c1.49-2.73,2.96-3.46,4.85-2.43c1.89,1.03,2.06,2.66,0.57,5.39l-0.39,0.72
		l1.09,1.89l1.66-3.04C19.79,8.47,18.91,5.46,16.51,4.14z"/>
	<polygon class="st2" points="16.68,15.32 15.62,13.96 16.94,14.57 18.16,15.07 	"/>
	<polygon class="st2" points="16.89,16.56 15.87,15.17 16.1,16.61 16.24,17.92 	"/>
</g>
<g id="Layer_3">
	<circle class="st3" cx="37" cy="8" r="8"/>
	<polygon class="st2" points="40.29,9.51 39.58,8.6 40.46,9.01 41.28,9.34 	"/>
	<polygon class="st2" points="40.34,10.63 39.58,9.76 39.82,10.7 39.99,11.57 	"/>
	<path class="st1" d="M39.56,12.18l-0.72-0.39l0.37-0.67l-0.73-1.26l-0.73,1.34l-3.61-1.97l2-3.65c1-1.82,1.97-2.31,3.23-1.62
		c1.15,0.63,1.34,1.6,0.6,3.15l0.74,1.28l0.62-1.13c0.88-1.6,0.29-3.61-1.31-4.48c-1.6-0.88-3.61-0.29-4.48,1.31l-2.48,4.53
		l-1.13-0.62c-0.27-0.15-0.6-0.05-0.75,0.22l-0.23,0.43c-0.15,0.27-0.05,0.6,0.22,0.75l7.65,4.18c0.27,0.15,0.6,0.05,0.75-0.22
		l0.23-0.43C39.93,12.66,39.83,12.32,39.56,12.18z"/>
</g>
</svg>
