<?xml version="1.0" encoding="utf-8"?>
<!-- Generator: Adobe Illustrator 25.2.3, SVG Export Plug-In . SVG Version: 6.00 Build 0)  -->
<svg version="1.1" xmlns="http://www.w3.org/2000/svg" xmlns:xlink="http://www.w3.org/1999/xlink" x="0px" y="0px"
	 viewBox="0 0 24 24" style="enable-background:new 0 0 24 24;" xml:space="preserve">
<style type="text/css">
	.st0{fill:#6B0F1B;}
	.st1{display:none;}
	.st2{display:inline;fill:#FFFFFF;}
	.st3{fill:#FFFFFF;}
</style>
<g id="_x32_4x24">
	<circle class="st0" cx="12" cy="12" r="12"/>
	<path class="st1" d="M8.86,9.83"/>
	<g class="st1">
		<path class="st2" d="M15.85,14.79c-0.36-0.27-0.78-0.62-0.97-1.24c-0.08-0.27,0.17-0.44,0.17-0.44c-0.31-0.15-1.11-1.2-1.19-1.41
			c-0.26-0.75,0.07-1.09,0.02-1.1c-0.37-0.12-1.3-0.38-1.87-1.41c-0.1-0.17-0.07-0.7-1.4-0.81C10.53,8.37,10.63,8,10.85,7.89
			c0.16-0.07,0.32-0.01,0.37,0.01l1.98,0.65c1.28,0.37,2.49,0.3,3.15-0.74c0.23-0.35-0.45-0.57-0.82-0.8L12.5,5.09
			c-1.3-0.65-1.95-0.5-3.23-0.1L7.51,5.94c-0.15,0.1-0.47,0.47-0.57,1L6.82,7.8C6.8,7.98,6.23,9.4,7.54,11.53
			c-0.86-0.09-1.33-1.8-1.33-1.8c-0.23,0.41-0.37,0.48-0.46,0.55c-1.21,0.91-1.56,0.87-2.69,1.37C2.95,11.71,3.94,16,3.94,16
			s1,3.78,1.37,4.11c0.16,0.14,0.39,0.12,0.72-0.18c0.2-0.19,2.56-2.46,4.41-3.33c0.46-0.22,1.56-0.64,1.56-0.64
			c0.21-0.14-0.99-0.57-1.83-1.84c2,1.43,3.25,1.58,3.66,1.62c0,0,0.57,0.05,1.27-0.06c0.49-0.08,1.44-0.26,1.79-0.51
			C16.35,15.22,16.08,14.97,15.85,14.79z"/>
		<path class="st2" d="M14.81,5.85l1.54-1.07c0.92-0.64,0.37-0.93-0.17-1.6l-0.23-0.25c-0.39-0.43-0.98-0.56-1.38-0.31l-2.5,1.68
			c0.31,0.19,0.78,0.36,1.09,0.55C13.65,5.19,14.32,5.52,14.81,5.85z"/>
		<path class="st2" d="M15.39,6.21c0.54,0.32,1.89,1.19,1.7,1.57c-0.2,0.38-1.15,1.36-2.07,1.52c-0.57,0.1-1.28-0.01-2.19-0.3
			c-0.26-0.09-0.16,0.02-0.13,0.11c0.19,0.65,1.44,1.12,1.77,1.04c0.59-0.14,1.63-0.66,3.32-2.01c1.86-1.48,0.77-0.61,1.5-1.19
			c0.23-0.26,0.86-0.77-0.09-1.62l-0.22-0.2c-0.73-0.68-1.09-0.66-1.72-0.23l-1.56,1.13L15.39,6.21z"/>
		<path class="st2" d="M20.95,8.02l-0.13-0.22c-0.14-0.19-0.44-0.36-0.65-0.41c-0.34-0.08-0.72,0.31-0.76,0.34
			c-0.97,0.64-1.86,1.48-2.46,1.83c-0.52,0.3-0.89,0.55-1.52,0.84c-0.44,0.2-0.92,0.43-0.96,0.86c-0.02,0.22,0.1,0.52,0.3,0.8
			L15,12.33l0.07,0.09c0.08,0.07,0.36,0.61,1.41,0.13c1.7-0.78,3.37-1.75,4.32-2.49c0.14-0.11,0.4-0.44,0.4-0.44
			C21.63,8.84,21.24,8.4,20.95,8.02z"/>
		<path class="st2" d="M21.19,10.81c-0.33-0.11-0.72,0.23-1.17,0.51c-0.94,0.52-1.42,0.76-2.56,1.32c-0.52,0.26-1.03,0.43-1.3,0.56
			c-0.14,0.07-0.34,0.17-0.38,0.34c-0.04,0.16,0.08,0.36,0.17,0.53c0.03,0.05,0.06,0.1,0.08,0.13c0,0,0.04,0.05,0.04,0.05
			c0.13,0.19,0.46,0.35,0.46,0.35c0.25,0.1,0.84,0.25,1.59-0.17l2.76-1.33c0.91-0.5,0.99-0.75,0.83-1.88
			C21.59,11.02,21.4,10.88,21.19,10.81z"/>
	</g>
	<g id="NewFist">
	</g>
	<g>
		<path class="st3" d="M5.36,10.83c-0.59,1.67-2.46,7.3-0.93,8.45c0.16,0.12,0.3,0.17,0.3,0.17c3.29-1.87,5.16-2.52,5.86-2.81
			c0.14-0.06,0.16-0.24,0.04-0.34c-0.95-0.81-1-1.07-0.96-1.17c0.06-0.13,0.51-0.49,0.55-0.41c0.51,1.06,1.12,1.29,2.56,1.75
			c0.87,0.28,2.35,0.09,2.06-0.12c-2.73-2-0.36-3.86-2.26-5.91c-0.43-0.47-0.77-0.87-0.82-0.93c-0.12-0.15-0.8-1.1-0.62-1.23
			c0.34-0.22,1.27,1.34,3.49,1.62c0.61,0.08,1.4,0.04,1.42-0.34c0.03-0.53-2.53-2.36-3.59-4.05c-0.9-1.44-3.92-0.14-4.68,1.15
			c-0.59,1,0.08,2.02-0.72,3.1C6.61,10.4,5.9,10.69,5.36,10.83z"/>
		<path class="st3" d="M13.17,4.96c-0.25-0.34,1.63-0.88,2.6-1.29c0.38-0.16,0.48-0.11,0.72,0.01c0.47,0.25,1.39,1.37,1.3,1.69
			c-0.02,0.07-0.2,0.22-0.51,0.34c-0.66,0.26-1.66,0.74-2.37,0.96C14.59,6.75,13.65,5.6,13.17,4.96z"/>
		<path class="st3" d="M17.48,7.77"/>
		<path class="st3" d="M14.25,11.38c0.09-0.2,0.3-0.28,0.36-0.29c1.55-0.37,4.77-1.67,5.1-1.89c0.11-0.07,0.52-0.23,0.71-0.07
			c0.43,0.38,0.58,1.52,0.34,2.07c-0.11,0.25-0.56,0.48-0.61,0.51c-0.35,0.21-3.06,1.11-5.09,1.64c-0.08,0.02-0.29,0.01-0.4-0.09
			C14.49,13.11,14.2,11.5,14.25,11.38z"/>
		<path class="st3" d="M15.47,7.55c-0.15-0.39,2.09-0.98,3.05-1.39C18.89,6,19,6.05,19.23,6.17C19.7,6.42,20,7.72,19.91,8.03
			c-0.02,0.07-0.2,0.22-0.51,0.34c-0.66,0.26-1.49,0.66-2.2,0.88C16.89,9.35,15.67,8.09,15.47,7.55z"/>
		<path class="st3" d="M14.75,14.48c0.04-0.21,0.31-0.26,0.37-0.28c1.56-0.3,4.2-1.22,4.53-1.42c0.11-0.07,0.53-0.21,0.71-0.04
			c0.41,0.39,0.38,1.01,0.12,1.56c-0.12,0.24-0.58,0.46-0.63,0.49c-0.36,0.2-1.6,0.62-3.65,1.08c-0.08,0.02-0.24,0.05-0.38,0
			C15.53,15.77,14.58,15.43,14.75,14.48z"/>
	</g>
</g>
<g id="_x31_6x16">
	<circle class="st0" cx="37" cy="8" r="8"/>
	<g class="st1">
		<path class="st2" d="M39.56,9.86c-0.24-0.18-0.52-0.41-0.65-0.83c-0.06-0.18,0.11-0.29,0.11-0.29c-0.2-0.1-0.74-0.8-0.79-0.94
			c-0.17-0.5,0.04-0.73,0.01-0.74C38,6.99,37.38,6.81,37,6.13c-0.06-0.12-0.05-0.47-0.93-0.54c-0.05,0,0.02-0.26,0.16-0.32
			c0.1-0.05,0.22,0,0.25,0.01L37.8,5.7c0.85,0.25,1.66,0.2,2.1-0.49c0.15-0.24-0.3-0.38-0.54-0.54l-2.02-1.28
			c-0.87-0.43-1.3-0.33-2.15-0.06L34,3.96c-0.1,0.06-0.31,0.31-0.38,0.66L33.55,5.2c-0.01,0.12-0.39,1.07,0.48,2.49
			c-0.57-0.06-0.88-1.2-0.88-1.2c-0.15,0.27-0.24,0.32-0.31,0.37c-0.8,0.61-1.04,0.58-1.79,0.91c-0.08,0.04,0.58,2.9,0.58,2.9
			s0.66,2.52,0.91,2.74c0.11,0.09,0.26,0.08,0.48-0.12c0.14-0.12,1.7-1.64,2.94-2.22c0.31-0.14,1.04-0.43,1.04-0.43
			c0.14-0.09-0.66-0.38-1.22-1.23c1.33,0.95,2.17,1.06,2.44,1.08c0,0,0.38,0.03,0.85-0.04c0.33-0.05,0.96-0.18,1.19-0.34
			C39.9,10.15,39.72,9.98,39.56,9.86z"/>
		<path class="st2" d="M38.87,3.9l1.03-0.71c0.61-0.43,0.25-0.62-0.11-1.06l-0.15-0.17c-0.26-0.28-0.65-0.37-0.92-0.2l-1.67,1.12
			c0.2,0.13,0.52,0.24,0.72,0.37C38.1,3.46,38.55,3.68,38.87,3.9z"/>
		<path class="st2" d="M39.26,4.14c0.36,0.21,1.26,0.79,1.13,1.05c-0.13,0.26-0.77,0.91-1.38,1.01c-0.38,0.06-0.85,0-1.46-0.2
			c-0.17-0.06-0.1,0.02-0.09,0.08c0.13,0.44,0.96,0.74,1.18,0.69c0.4-0.09,1.08-0.44,2.21-1.34c1.24-0.99,0.51-0.41,1-0.79
			c0.16-0.17,0.58-0.51-0.06-1.08l-0.15-0.14c-0.49-0.45-0.73-0.44-1.15-0.15l-1.04,0.75L39.26,4.14z"/>
		<path class="st2" d="M42.97,5.34L42.88,5.2c-0.1-0.13-0.29-0.24-0.44-0.27c-0.23-0.05-0.48,0.21-0.51,0.23
			c-0.65,0.42-1.24,0.99-1.64,1.22c-0.35,0.2-0.59,0.37-1.01,0.56c-0.29,0.13-0.61,0.29-0.64,0.57c-0.02,0.15,0.07,0.34,0.2,0.53
			L39,8.22l0.05,0.06c0.05,0.05,0.24,0.41,0.94,0.09c1.13-0.52,2.25-1.17,2.88-1.66c0.09-0.07,0.27-0.29,0.27-0.29
			C43.42,5.89,43.16,5.6,42.97,5.34z"/>
		<path class="st2" d="M43.13,7.21c-0.22-0.07-0.48,0.15-0.78,0.34c-0.62,0.34-0.94,0.51-1.71,0.88c-0.35,0.17-0.69,0.29-0.87,0.38
			c-0.09,0.05-0.23,0.11-0.25,0.23c-0.02,0.11,0.05,0.24,0.12,0.35c0.02,0.04,0.04,0.06,0.05,0.08c0,0,0.03,0.03,0.03,0.03
			c0.08,0.13,0.3,0.23,0.31,0.23c0.17,0.07,0.56,0.17,1.06-0.11l1.84-0.89c0.6-0.33,0.66-0.5,0.55-1.26
			C43.39,7.35,43.26,7.25,43.13,7.21z"/>
	</g>
	<g>
		<path class="st3" d="M32.86,7.54c-0.4,1.14-1.68,4.98-0.63,5.76c0.11,0.08,0.2,0.12,0.21,0.12c2.25-1.28,3.52-1.72,4-1.92
			c0.09-0.04,0.11-0.16,0.03-0.23c-0.65-0.55-0.69-0.73-0.65-0.8c0.04-0.09,0.35-0.33,0.37-0.28c0.35,0.72,0.76,0.88,1.74,1.2
			c0.59,0.19,1.6,0.06,1.41-0.08c-1.86-1.36-0.24-2.64-1.54-4.04c-0.29-0.32-0.52-0.59-0.56-0.63c-0.08-0.1-0.55-0.75-0.42-0.84
			c0.23-0.15,0.87,0.92,2.38,1.11c0.42,0.05,0.96,0.03,0.97-0.23c0.02-0.36-1.73-1.61-2.45-2.77c-0.61-0.98-2.68-0.1-3.19,0.78
			c-0.4,0.68,0.05,1.38-0.49,2.12C33.71,7.25,33.22,7.44,32.86,7.54z"/>
		<path class="st3" d="M38.18,3.53c-0.17-0.23,1.11-0.6,1.77-0.88c0.26-0.11,0.33-0.08,0.49,0.01c0.32,0.17,0.95,0.94,0.89,1.15
			c-0.01,0.04-0.14,0.15-0.35,0.23c-0.45,0.18-1.13,0.5-1.62,0.65C39.16,4.76,38.51,3.97,38.18,3.53z"/>
		<path class="st3" d="M41.13,5.46"/>
		<path class="st3" d="M38.93,7.91c0.06-0.13,0.2-0.19,0.24-0.2c1.06-0.25,3.26-1.14,3.48-1.29c0.07-0.05,0.36-0.16,0.49-0.05
			c0.29,0.26,0.4,1.03,0.23,1.42c-0.07,0.17-0.38,0.33-0.42,0.35c-0.24,0.15-2.09,0.76-3.47,1.12c-0.05,0.01-0.2,0.01-0.27-0.06
			C39.09,9.1,38.89,7.99,38.93,7.91z"/>
		<path class="st3" d="M39.75,5.3c-0.1-0.27,1.42-0.67,2.08-0.95c0.26-0.11,0.33-0.08,0.49,0.01c0.32,0.17,0.52,1.06,0.46,1.27
			c-0.01,0.04-0.14,0.15-0.35,0.23c-0.45,0.18-1.01,0.45-1.5,0.6C40.73,6.53,39.89,5.67,39.75,5.3z"/>
		<path class="st3" d="M39.27,10.03c0.03-0.14,0.21-0.18,0.25-0.19c1.07-0.21,2.87-0.83,3.09-0.97c0.07-0.05,0.36-0.14,0.49-0.03
			c0.28,0.27,0.26,0.69,0.08,1.07c-0.08,0.17-0.4,0.31-0.43,0.33c-0.24,0.14-1.1,0.43-2.49,0.73c-0.05,0.01-0.17,0.04-0.26,0
			C39.79,10.91,39.15,10.68,39.27,10.03z"/>
	</g>
</g>
</svg>
