<?xml version="1.0" encoding="utf-8"?>
<!-- Generator: Adobe Illustrator 25.2.3, SVG Export Plug-In . SVG Version: 6.00 Build 0)  -->
<svg version="1.1" xmlns="http://www.w3.org/2000/svg" xmlns:xlink="http://www.w3.org/1999/xlink" x="0px" y="0px"
	 viewBox="0 0 24 24" style="enable-background:new 0 0 24 24;" xml:space="preserve">
<style type="text/css">
	.st0{fill:#172C55;}
	.st1{fill:#FFFFFF;}
	.st2{display:none;}
	.st3{display:inline;fill:#2C318C;}
	.st4{display:inline;fill:#FFFFFF;}
	.st5{fill:#2C318C;}
</style>
<g id="_x32_4x24">
	<g id="Layer_1">
		<circle class="st0" cx="12" cy="12" r="12"/>
	</g>
	<path class="st1" d="M5.95,3.64V3.9v0.64v6.92v0.89v7.12v0.89h0.89h4.76h0.89h4.67h0.89v-0.89v-7.12v-0.89V4.53V3.9V3.64H5.95z
		 M6.84,4.53h4.76v6.92H6.84V4.53z M10.08,19.47l0.85-0.76l-0.71-0.43l0.93-1.03l-1.19-0.15l0.44-1.84L8.46,16.6L8.17,14.3
		l-1.33,1.54v-3.5h4.76v7.12H10.08z M17.16,19.47h-4.67v-7.12h4.67V19.47z M17.16,11.45h-4.67V4.53h4.67V11.45z"/>
</g>
<g id="_x32_4x24_wSill" class="st2">
	<circle class="st3" cx="12" cy="12" r="12"/>
	<path class="st4" d="M17.39,18.33v-0.64v-5.96v-0.74V5.2V4.67V4.46H7.28v0.21V5.2v5.79v0.74v5.96v0.64H6.09v1.21h12.48v-1.21H17.39
		z M12.74,5.2h3.9v5.79h-3.9V5.2z M12.74,11.73h3.9v5.96h-3.9V11.73z M8.02,5.2H12v5.79H8.02V5.2z M8.02,11.73H12v5.96h-1.27
		l0.62-1.01l-0.5,0.02l0.78-0.86l-1.03,0.04l0.91-2.5l-2.14,1.92l-0.24-1.92l-1.11,1.87V11.73z"/>
</g>
<g id="_x31_6x16_wSill" class="st2">
	<circle class="st3" cx="37" cy="8" r="8"/>
	<path class="st4" d="M40.6,12.22v-0.43V7.82v-0.5V3.47V3.11V2.97h-6.74v0.14v0.35v3.86v0.5v3.97v0.43h-0.79v0.81h8.32v-0.81H40.6z
		 M37.5,3.47h2.6v3.86h-2.6V3.47z M37.5,7.82h2.6v3.97h-2.6V7.82z M34.35,3.47H37v3.86h-2.65V3.47z M34.35,7.82H37v3.97h-0.84
		l0.41-0.68l-0.33,0.01l0.52-0.58l-0.69,0.03l0.61-1.67l-1.42,1.28l-0.16-1.28l-0.74,1.25V7.82z"/>
</g>
<g id="_x31_6x16">
	<circle class="st5" cx="37" cy="8" r="8"/>
	<path class="st1" d="M32.97,2.43V2.6v0.42v4.61v0.59v4.75v0.59h0.59h3.17h0.59h3.11h0.59v-0.59V8.23V7.64V3.02V2.6V2.43H32.97z
		 M33.56,3.02h3.17v4.61h-3.17V3.02z M35.72,12.98l0.49-0.81l-0.4,0.02l0.62-0.69l-0.82,0.03l0.72-1.99l-1.7,1.53l-0.19-1.53
		l-0.88,1.49v-2.8h3.17v4.75H35.72z M40.44,12.98h-3.11V8.23h3.11V12.98z M40.44,7.64h-3.11V3.02h3.11V7.64z"/>
</g>
</svg>
