<svg id="Layer_4" data-name="Layer 4" xmlns="http://www.w3.org/2000/svg" viewBox="0 0 23 23"><defs><style>.cls-1{fill:#69c;}.cls-2{fill:#fff;}</style></defs><circle class="cls-1" cx="11.5" cy="11.5" r="11.5"/><path class="cls-2" d="M17.37,14.24a3,3,0,0,1-1.26,2.44,6,6,0,0,1-3.2,1.23v3.5H11.63V18a12.9,12.9,0,0,1-2.46-.24,11.65,11.65,0,0,1-1.7-.44A.7.7,0,0,1,7,16.61V15.14h.16a8.83,8.83,0,0,0,2,.93,10.08,10.08,0,0,0,2.43.45V12.34l-.69-.14a6,6,0,0,1-.69-.16,4.58,4.58,0,0,1-2.42-1.2,2.84,2.84,0,0,1-.73-2A3,3,0,0,1,8.36,6.48,5.76,5.76,0,0,1,11.63,5.3V2.67h1.28V5.28A12.57,12.57,0,0,1,15,5.53c.49.1.92.2,1.29.31a.7.7,0,0,1,.5.67V7.92h-.17a10.23,10.23,0,0,0-1.73-.81,7.63,7.63,0,0,0-2-.43v4.16l.69.14.56.13a4.83,4.83,0,0,1,2.37,1.07A2.65,2.65,0,0,1,17.37,14.24ZM11.63,10.7v-4a3.38,3.38,0,0,0-1.71.57,1.57,1.57,0,0,0-.68,1.36A1.71,1.71,0,0,0,9.74,10,4.06,4.06,0,0,0,11.63,10.7Zm3.61,3.79a1.62,1.62,0,0,0-.54-1.34,4.09,4.09,0,0,0-1.79-.66v4a3.16,3.16,0,0,0,1.74-.59A1.7,1.7,0,0,0,15.24,14.49Z" transform="translate(-0.58 -0.5)"/></svg>