<?xml version="1.0" encoding="utf-8"?>
<!-- Generator: Adobe Illustrator 25.2.3, SVG Export Plug-In . SVG Version: 6.00 Build 0)  -->
<svg version="1.1" xmlns="http://www.w3.org/2000/svg" xmlns:xlink="http://www.w3.org/1999/xlink" x="0px" y="0px"
	 viewBox="0 0 24 24" style="enable-background:new 0 0 24 24;" xml:space="preserve">
<style type="text/css">
	.st0{fill:#FDB724;}
	.st1{fill:#FFFFFF;}
	.st2{fill:#108C44;}
</style>
<g id="_x32_4x24">
	<circle class="st0" cx="12" cy="12" r="12"/>
	<path class="st1" d="M21.22,10.42c-1.76-1.7-5.51-2.58-9.22-2.61c-3.71,0.02-7.46,0.91-9.22,2.61c-1.02,0.98-1.09,2.21-0.16,3.62
		c0.75,1.14,2.11,3.03,3.6,2.91c1.29-0.11,3.13-0.69,3.51-1.02c0.94-0.84,0.62-0.85,1.61-1.43c0.09-0.05,0.3-0.13,0.67-0.14
		c0.34-0.01,0.58,0.08,0.67,0.14c0.99,0.57,0.67,0.59,1.61,1.43c0.38,0.34,2.22,0.91,3.51,1.02c1.49,0.13,2.85-1.77,3.6-2.91
		C22.31,12.63,22.24,11.4,21.22,10.42z M6.76,14.1c-1.22-0.34-2.24-1.52-2-2.06c0.43-0.97,5.2-0.32,5.33,0.66
		C10.18,13.32,8.46,14.57,6.76,14.1z M17.24,14.1c-1.7,0.47-3.42-0.78-3.33-1.4c0.13-0.98,4.9-1.63,5.33-0.66
		C19.47,12.58,18.46,13.76,17.24,14.1z"/>
</g>
<g id="_x31_6x16">
	<circle class="st2" cx="37" cy="8" r="8"/>
	<path class="st1" d="M43.05,7.15C41.9,6.04,39.43,5.46,37,5.44c-2.43,0.02-4.9,0.6-6.05,1.71c-0.67,0.64-0.72,1.45-0.11,2.37
		c0.49,0.75,1.38,1.99,2.36,1.91c0.85-0.07,2.05-0.45,2.3-0.67c0.61-0.55,0.41-0.56,1.06-0.94c0.06-0.04,0.2-0.09,0.44-0.09
		c0.23,0,0.38,0.05,0.44,0.09c0.65,0.38,0.44,0.39,1.06,0.94c0.25,0.22,1.45,0.6,2.3,0.67c0.98,0.08,1.87-1.16,2.36-1.91
		C43.76,8.6,43.71,7.8,43.05,7.15z M33.57,9.56c-0.8-0.22-1.47-1-1.31-1.35c0.28-0.64,3.41-0.21,3.5,0.43
		C35.81,9.05,34.68,9.87,33.57,9.56z M40.43,9.56c-1.11,0.31-2.24-0.51-2.19-0.92c0.09-0.64,3.21-1.07,3.5-0.43
		C41.9,8.57,41.24,9.34,40.43,9.56z"/>
</g>
<g id="_x32_4x24_Bag">
	<circle class="st2" cx="12.05" cy="41.05" r="11.95"/>
	<path class="st1" d="M18.35,47.39c-0.37-2.39-0.25-6.24-1.12-8.46c-0.57-1.47-1.73-2.14-2.21-2.47c-0.33-0.23-0.53-0.31-1.04-0.97
		c-0.17-0.22-0.31-0.5-0.42-0.9c-0.32-1.14,0.15-1.82,0.88-2.3c0.32-0.21,0.2-0.7-0.19-0.7H12H9.74c-0.39,0-0.52,0.5-0.19,0.7
		c0.73,0.47,1.2,1.15,0.88,2.3c-0.11,0.4-0.26,0.68-0.42,0.9c-0.5,0.66-0.71,0.74-1.04,0.97c-0.48,0.33-1.63,1-2.21,2.47
		C5.9,41.15,6.02,45,5.65,47.39c-0.28,1.84-0.77,1.61,5.77,1.6c0.19,0,0.39,0,0.58,0.01c0.19,0,0.39-0.01,0.58-0.01
		C19.12,49,18.63,49.23,18.35,47.39z"/>
	
		<text transform="matrix(1.2524 0 0 1 7.4676 45.6383)" style="fill:#128C45; font-family:'ArialRoundedMTBold'; font-size:12.5496px;">$</text>
</g>
<g id="_x31_6x16_Bag">
	<circle class="st2" cx="37" cy="37" r="8"/>
	<path class="st1" d="M40.88,41.34c-0.23-1.46-0.15-3.82-0.68-5.17c-0.35-0.9-1.05-1.31-1.35-1.51c-0.2-0.14-0.33-0.19-0.63-0.59
		c-0.1-0.13-0.19-0.3-0.26-0.55c-0.2-0.7,0.09-1.12,0.54-1.4c0.2-0.13,0.12-0.43-0.12-0.43H37h-1.38c-0.24,0-0.32,0.3-0.12,0.43
		c0.45,0.29,0.73,0.7,0.54,1.4c-0.07,0.25-0.16,0.42-0.26,0.55c-0.31,0.4-0.43,0.45-0.63,0.59c-0.29,0.2-1,0.61-1.35,1.51
		c-0.53,1.36-0.46,3.71-0.68,5.17c-0.17,1.12-0.47,0.98,3.53,0.98c0.12,0,0.24,0,0.36,0c0.12,0,0.24,0,0.36,0
		C41.35,42.32,41.06,42.46,40.88,41.34z"/>
	
		<text transform="matrix(1.2524 0 0 1 34.2297 40.263)" style="fill:#128C45; font-family:'ArialRoundedMTBold'; font-size:7.6717px;">$</text>
</g>
</svg>
