<?xml version="1.0" encoding="utf-8"?>
<!-- Generator: Adobe Illustrator 25.2.3, SVG Export Plug-In . SVG Version: 6.00 Build 0)  -->
<svg version="1.1" xmlns="http://www.w3.org/2000/svg" xmlns:xlink="http://www.w3.org/1999/xlink" x="0px" y="0px"
	 viewBox="0 0 24 24" style="enable-background:new 0 0 24 24;" xml:space="preserve">
<style type="text/css">
	.st0{fill:#614DA0;}
	.st1{fill:#FFFFFF;}
	.st2{fill:#226FB8;}
	.st3{display:none;fill:#FDFEFE;}
</style>
<g id="_x32_4x24">
	<circle class="st0" cx="12" cy="-17" r="12"/>
	<g>
		<path class="st1" d="M13.53-15.01c1.49,0,2.7,1.2,2.7,2.67s-1.21,2.67-2.7,2.67s-2.7-1.2-2.7-2.67S12.04-15.01,13.53-15.01z"/>
		<polygon class="st1" points="4.51,-21.84 5.41,-20.61 6.49,-21.01 6.39,-20.07 7.7,-19.14 6.04,-19.48 5.98,-18.71 5.21,-19.28 
			3.76,-18.76 3.95,-19.74 2.64,-20.6 4.22,-20.7 		"/>
		<path class="st1" d="M2.8-18.27h1.09v0c1.6,0,4.99-0.02,5.77-0.03c0.42-0.01-1.81-3.92-6.18-4.12L2.8-22.45v-1.24l0.99,0.07
			c5.06,0.6,7.03,4.11,8.02,4.21c0.77,0.08,4.09,0.63,5.8,0.95c0.41,0.08,0.68,0.22,0.87,0.46c0.39,0.39,0.55,3.57,0.67,5.04
			c-0.04,0.04-0.06,0.06-0.1,0.11h-1.83c-0.04-0.04-0.06-0.06-0.09-0.09c-0.07-1.68-1.9-3.03-3.61-3.03c-1.71,0-3.5,1.35-3.57,3.02
			c0,0.05-0.04,0.1-0.1,0.1H3.89H3.85H2.8V-18.27z"/>
	</g>
</g>
<g id="_x31_6x16">
	<circle class="st0" cx="37" cy="-21" r="8"/>
	<g>
		<path class="st1" d="M38.36-19.33c1.01,0,1.83,0.81,1.83,1.8s-0.82,1.8-1.83,1.8c-1.01,0-1.83-0.81-1.83-1.8
			S37.35-19.33,38.36-19.33z"/>
		<polygon class="st1" points="32.26,-23.94 32.87,-23.11 33.59,-23.38 33.53,-22.74 34.41,-22.12 33.29,-22.35 33.25,-21.83 
			32.73,-22.22 31.75,-21.86 31.88,-22.52 31,-23.11 32.06,-23.17 		"/>
		<path class="st1" d="M31.1-21.53h0.74v0c1.08,0,3.37-0.01,3.9-0.02c0.28-0.01-1.22-2.65-4.17-2.79l-0.46-0.02v-0.84l0.67,0.05
			c3.42,0.4,4.75,2.78,5.42,2.85c0.52,0.05,2.77,0.42,3.92,0.64c0.27,0.05,0.46,0.15,0.59,0.31c0.26,0.27,0.37,2.42,0.45,3.4
			c-0.03,0.03-0.04,0.04-0.07,0.07h-1.24c-0.03-0.02-0.04-0.04-0.06-0.06c-0.04-1.14-1.28-2.05-2.44-2.05
			c-1.16,0-2.37,0.91-2.41,2.04c0,0.04-0.03,0.07-0.07,0.07h-4.02h-0.03h-0.7V-21.53z"/>
	</g>
</g>
<g id="_x32_4x24_Door">
	<circle class="st2" cx="12" cy="12" r="12"/>
	<path class="st1" d="M18.9,3.61c0-0.14-0.11-0.24-0.26-0.25c-3.61-0.23-6.44,0.28-7.51,0.77C10.3,4.51,5.7,6.33,3.98,10.6
		c-0.38,0.96-0.41,9.27,0.41,9.29c9.28,0.18,9.28,0.18,14.49,0.1C19.09,19.99,18.92,5.62,18.9,3.61z M17.63,10.57
		c0,0.15-0.12,0.27-0.27,0.27c-3.37,0.07-7.33,0.09-11.26,0c-0.63-0.01,2.1-3.67,4.5-4.9c1.43-0.73,3.72-1.5,6.79-1.21
		c0.14,0.01,0.24,0.14,0.24,0.28V10.57z"/>
	<path class="st3" d="M7.31,10.87c-0.46-0.01,1.51-3.15,3.24-4.1c1.04-0.57,2.71-0.88,4.94-0.65c0.1,0.01,0.18,0.11,0.18,0.21v4.33
		c0,0.12-0.08,0.21-0.19,0.21C13.03,10.93,10.16,10.94,7.31,10.87z"/>
	<polygon class="st1" points="11.2,8.09 10.98,6.36 12.69,7.27 14.44,5.71 14.21,7.21 16.01,6.91 14.37,8.3 15.71,10.31 12.83,9.57 
		10.63,10.38 10.75,9.31 8.73,8.96 	"/>
</g>
<g id="_x31_6x16_Door">
	<circle class="st0" cx="37" cy="8" r="8"/>
	<polygon class="st1" points="37.55,5.49 37.69,4.37 36.58,4.96 35.45,3.95 35.6,4.92 34.43,4.73 35.49,5.63 34.62,6.93 36.49,6.46 
		37.92,6.98 37.85,6.29 39.15,6.06 	"/>
	<path class="st1" d="M41.51,8.81c0.09-0.02,0.16-0.1,0.16-0.2c-0.02-0.71-0.07-1.27-0.13-1.45c-0.96-2.77-2.99-3.96-3.44-4.21
		c-0.59-0.32-2.69-0.64-4.69-0.49c-0.08,0.01-0.14,0.07-0.14,0.16c-0.01,1.3-0.11,10.62,0.01,10.63c1.97,0.04,2.6,0.05,4.43,0.01
		c0.1,0,0.19-0.09,0.19-0.19C37.99,10.97,39.51,9.24,41.51,8.81z M34.11,7.32c-0.08,0-0.15-0.08-0.15-0.18V3.53
		c0-0.09,0.06-0.17,0.13-0.18c1.71-0.19,2.99,0.07,3.78,0.54c1.33,0.8,2.84,3.41,2.48,3.42C38.18,7.38,35.98,7.37,34.11,7.32z"/>
</g>
</svg>
