<svg id="_24x24" data-name="24x24" xmlns="http://www.w3.org/2000/svg" viewBox="0 0 23 23"><defs><style>.cls-1{fill:#333;}.cls-2{fill:#fff;}</style></defs><circle class="cls-1" cx="11.5" cy="11.5" r="11.5"/><path class="cls-2" d="M14.69,5.62c.33,0,.53.29.46.7h0a1.23,1.23,0,0,1-.87,1l-2.85.55-.76.8,3.78,1.62,3.72-2h.25l0,0s.06,0,.07.06l1.3,3.37A1.21,1.21,0,0,1,19.36,13a.9.9,0,0,1-.54.21.46.46,0,0,1-.45-.31l-1-2.51-3.19,1.68,2.84,2.15,2.58,1.95c.29.22.27.76,0,1.2l-.07.1a1.26,1.26,0,0,1-.56.44.56.56,0,0,1-.21,0,.87.87,0,0,1-.33-.08l-2.61-2L12.4,13.3,7.66,11.79l-2,2.09,0,0a.23.23,0,0,1-.16.08h0l-2.86-.92c-.34-.11-.42-.56-.2-1a1.1,1.1,0,0,1,.87-.65.37.37,0,0,1,.15,0l2.11.67,1.41-1.54-.52-.15-1.23-.35c-.38-.1-.49-.51-.23-.9l.53-.83a1.23,1.23,0,0,1,.95-.54.64.64,0,0,1,.2,0l1.23.35c.42.11.64.66.64.66l2.41-2.4,0,0a.26.26,0,0,1,.17-.12l3.46-.66h.11m0-.75h0l-.25,0L11,5.55a.94.94,0,0,0-.53.3.27.27,0,0,0-.08.07L8.57,7.7a1.53,1.53,0,0,0-.51-.26L6.84,7.1A1.4,1.4,0,0,0,6.43,7a1.94,1.94,0,0,0-1.58.89l-.53.82A1.42,1.42,0,0,0,4.14,10a1.22,1.22,0,0,0,.84.75l.58.17-.27.29-1.65-.53a1.21,1.21,0,0,0-.38-.06,1.84,1.84,0,0,0-1.54,1.06,1.71,1.71,0,0,0-.1,1.39,1.19,1.19,0,0,0,.74.68l2.87.91a1.09,1.09,0,0,0,.25,0,.93.93,0,0,0,.6-.22l.14-.11,1.66-1.75L12.05,14l1.6,1.21,1.71,1.29,1.3,1,1.3,1a.6.6,0,0,0,.15.09,1.59,1.59,0,0,0,.64.15,1.44,1.44,0,0,0,.46-.08,2,2,0,0,0,.91-.72l.08-.1a1.61,1.61,0,0,0-.11-2.23l-1.3-1-1.29-1-1.42-1.07-.47-.37L17,11.44l.67,1.72a1.21,1.21,0,0,0,1.15.79,1.66,1.66,0,0,0,1-.37,2,2,0,0,0,.7-2.12l-1.3-3.37a.78.78,0,0,0-.35-.41,1,1,0,0,0-.21-.12l-.06,0-.22,0h-.15a.9.9,0,0,0-.42.1l-3.41,1.8-2.25-1L14.42,8a2,2,0,0,0,1.47-1.57,1.39,1.39,0,0,0-.28-1.17,1.16,1.16,0,0,0-.92-.42Z" transform="translate(-0.5 -0.5)"/></svg>