<svg id="_24x24" data-name="24x24" xmlns="http://www.w3.org/2000/svg" viewBox="0 0 23 23"><defs><style>.cls-1{fill:#cb2026;}.cls-2{fill:#fff;}.cls-3{fill:none;stroke:#fff;stroke-linecap:round;stroke-miterlimit:10;stroke-width:0.75px;}</style></defs><circle class="cls-1" cx="11.5" cy="11.5" r="11.5"/><g id="Gun"><path class="cls-2" d="M20.22,11.21H4.81a.4.4,0,0,1-.4-.4V7.62a.4.4,0,0,1,.4-.4h16a.41.41,0,0,1,.38.53l-.54,3.07A.38.38,0,0,1,20.22,11.21Z" transform="translate(-0.5 -0.5)"/><path class="cls-2" d="M8.71,18.56a.42.42,0,0,1-.39.32l-3.84.05a.42.42,0,0,1-.24-.53l3.2-9.33A.42.42,0,0,1,8,8.8l2.84,1a.41.41,0,0,1,.24.53Z" transform="translate(-0.5 -0.5)"/><path class="cls-3" d="M14.42,10.56c-.74,1.45.09,3.11-1.95,3.11H9.15" transform="translate(-0.5 -0.5)"/><path class="cls-2" d="M4.81,11.21c2.92.37-.47,5.52-.59,7.26-.07,1,5.54-7.13,4.78-8.08C8.6,9.88,3.89,11.1,4.81,11.21Z" transform="translate(-0.5 -0.5)"/><path class="cls-2" d="M19.66,7.23h.94a.4.4,0,0,1,.4.4V9.15a.4.4,0,0,1-.4.4h-.94a.18.18,0,0,1-.18-.18v-2A.18.18,0,0,1,19.66,7.23Z"/><rect class="cls-2" x="5.75" y="6.12" width="1.24" height="1.38" rx="0.5"/></g></svg>