<svg id="_24x24" data-name="24x24" xmlns="http://www.w3.org/2000/svg" viewBox="0 0 23 23"><defs><style>.cls-1{fill:#7a174c;}.cls-2{fill:#fff;}</style></defs><circle class="cls-1" cx="11.5" cy="11.5" r="11.5"/><circle class="cls-2" cx="10.18" cy="15.95" r="2.28"/><path class="cls-2" d="M14.12,11.22c-1.44-.27-4.3-.53-4.89-.81C6.51,9.15,6.73,7.83,2.41,7.32V8.58c3.8.11,4.83,2.79,4.47,2.79s-3,0-4.38,0a.08.08,0,0,0-.09.09v4.44A.08.08,0,0,0,2.5,16H7.65a3,3,0,0,1,3-2.66A3,3,0,0,1,13.71,16h1.4a.3.3,0,0,0,.29-.33C15.14,12.45,15.39,11.46,14.12,11.22Z" transform="translate(-0.5 -0.5)"/><polygon class="cls-2" points="10.66 8.45 11.95 4.77 14.1 7.22 18.38 4.99 17.48 8.98 21.24 9.11 19.13 12 21.45 14.78 17.22 16.61 19.79 14.47 17.77 11.97 19.35 10.01 16.11 9.88 16.89 6.91 13.79 8.53 12.25 6.7 10.66 8.45"/></svg>